<svg aria-hidden="true" style="position: absolute; width: 0; height: 0; overflow: hidden;" version="1.1" xmlns="http://www.w3.org/2000/svg" xmlns:xlink="http://www.w3.org/1999/xlink">
<defs>
<symbol id="icon-vector-1" viewBox="0 0 21 32">
<path fill="#000" style="fill: var(--color1, #000)" opacity="0.1" d="M18.25 30.8c0 0.663-3.597 1.2-8.033 1.2s-8.033-0.537-8.033-1.2c0-0.663 3.597-1.2 8.033-1.2s8.033 0.537 8.033 1.2z"></path>
<path fill="#b0cf63" style="fill: var(--color2, #b0cf63)" d="M3.952 7.625c0.2 0.991-0.442 1.957-1.434 2.157s-1.957-0.442-2.157-1.434c-0.2-0.991 0.442-1.957 1.434-2.157s1.957 0.442 2.157 1.434z"></path>
<path fill="#f5f6f9" style="fill: var(--color3, #f5f6f9)" d="M1.805 6.806c-0.010-0.050-0.053-0.087-0.105-0.087-0.059 0-0.107 0.048-0.107 0.107s0.048 0.107 0.107 0.107c0.007 0 0.015-0.001 0.022-0.002l-0.001 0c0.050-0.010 0.087-0.054 0.087-0.106 0-0.007-0.001-0.014-0.002-0.021l0 0.001z"></path>
<path fill="#f5f6f9" style="fill: var(--color3, #f5f6f9)" d="M1.978 7.004c-0.005-0.025-0.027-0.043-0.053-0.043-0.030 0-0.054 0.024-0.054 0.054s0.024 0.054 0.054 0.054c0.004 0 0.007-0 0.010-0.001l-0 0c0.025-0.005 0.044-0.027 0.044-0.053 0-0.004-0-0.007-0.001-0.011l0 0z"></path>
<path fill="#f5f6f9" style="fill: var(--color3, #f5f6f9)" d="M1.572 9.313l1.605-0.441-0.793-0.713-0.195-0.908 0.166-0.11-0.021-0.105-0.781 0.376 0.020 0.101 0.173-0.065 0.165 0.837zM2.069 7.39c0.004-0.001 0.009-0.001 0.013-0.001 0.038 0 0.069 0.031 0.069 0.069s-0.031 0.069-0.069 0.069c-0.033 0-0.061-0.024-0.067-0.055l-0-0c-0.001-0.004-0.001-0.008-0.001-0.013 0-0.033 0.024-0.061 0.055-0.067l0-0zM2.222 7.896c0.001 0.003 0.001 0.006 0.001 0.010 0 0.029-0.023 0.052-0.052 0.052s-0.052-0.023-0.052-0.052c0-0.025 0.018-0.046 0.042-0.051l0-0c0.003-0.001 0.007-0.001 0.010-0.001 0.025 0 0.046 0.018 0.051 0.042l0 0zM1.94 7.619c0.004-0.001 0.010-0.001 0.015-0.001 0.043 0 0.078 0.035 0.078 0.078s-0.035 0.078-0.078 0.078c-0.038 0-0.069-0.027-0.076-0.062l-0-0c-0.001-0.004-0.001-0.009-0.001-0.014 0-0.038 0.027-0.069 0.062-0.076l0-0zM1.954 8.472s0.153-0.002 0.122-0.105c-0.045-0.149 0.007-0.219 0.085-0.121 0.065 0.081 0.096 0.094 0.104 0.014 0.006-0.060 0.075-0.014 0.262 0.146l0.459 0.418-1.267 0.347z"></path>
<path fill="#b0cf63" style="fill: var(--color2, #b0cf63)" d="M10.641 1.775c0.273 0.98-0.301 1.995-1.28 2.267s-1.995-0.301-2.267-1.28c-0.273-0.98 0.301-1.995 1.28-2.267s1.995 0.301 2.267 1.28z"></path>
<path fill="#f5f6f9" style="fill: var(--color3, #f5f6f9)" d="M9.134 2.247s-0.094-0.051-0.125-0.287-0.13-0.541-0.657-0.318-0.696 0.861-0.59 1.15 0.47 0.808 1.359 0.421c0.895-0.389 0.354-0.772 0.014-0.965zM8.068 2.857c-0.009 0.002-0.019 0.003-0.029 0.003-0.073 0-0.132-0.059-0.132-0.132s0.059-0.132 0.132-0.132c0.063 0 0.116 0.044 0.129 0.103l0 0.001c0.002 0.009 0.003 0.019 0.003 0.029 0 0.063-0.044 0.116-0.103 0.129l-0.001 0zM8.391 3.151c-0.009 0.002-0.019 0.003-0.029 0.003-0.073 0-0.133-0.059-0.133-0.132s0.059-0.132 0.133-0.132c0.063 0 0.116 0.044 0.129 0.103l0 0.001c0.002 0.009 0.003 0.018 0.003 0.029 0 0.063-0.044 0.115-0.102 0.129l-0.001 0zM8.406 2.404c-0.115-0.027-0.18-0.165-0.146-0.308s0.155-0.235 0.27-0.208 0.18 0.165 0.146 0.308-0.155 0.235-0.27 0.208zM8.853 3.152c-0.009 0.002-0.018 0.003-0.029 0.003-0.073 0-0.132-0.059-0.132-0.132s0.059-0.132 0.132-0.132c0.063 0 0.116 0.044 0.129 0.103l0 0.001c0.002 0.009 0.003 0.018 0.003 0.029 0 0.063-0.044 0.116-0.103 0.129l-0.001 0zM9.22 2.935c-0.009 0.002-0.019 0.003-0.029 0.003-0.073 0-0.133-0.059-0.133-0.132s0.059-0.132 0.133-0.132c0.063 0 0.116 0.044 0.129 0.103l0 0.001c0.002 0.009 0.003 0.019 0.003 0.029 0 0.063-0.044 0.116-0.103 0.129l-0.001 0z"></path>
<path fill="#f5f6f9" style="fill: var(--color3, #f5f6f9)" d="M9.888 2.549s-0.626-0.611-0.655-1.156c0.296 0.318 0.522 0.706 0.65 1.135l0.005 0.020z"></path>
<path fill="#f5f6f9" style="fill: var(--color3, #f5f6f9)" d="M9.089 1.1c-0.007 0.036-0.010 0.078-0.010 0.121 0 0.033 0.002 0.065 0.007 0.096l-0-0.004c0.014 0.115 0.159 0.19 0.196 0.087 0.054-0.152-0.148-0.080-0.192-0.3z"></path>
<path fill="#f5f6f9" style="fill: var(--color3, #f5f6f9)" d="M9.262 1.577l0.090-0.057-0.084-0.108-0.064 0.040z"></path>
<path fill="#6dace8" style="fill: var(--color4, #6dace8)" d="M14.869 1.543c1.216 0.39 1.885 1.693 1.495 2.909s-1.693 1.885-2.909 1.495c-1.216-0.39-1.885-1.693-1.495-2.909s1.693-1.885 2.909-1.495z"></path>
<path fill="#f5f6f9" style="fill: var(--color3, #f5f6f9)" d="M13.598 4.309c0.002 0.001 0.003 0.002 0.005 0.003-0.002-0.001-0.003-0.002-0.005-0.003z"></path>
<path fill="#f5f6f9" style="fill: var(--color3, #f5f6f9)" d="M14.289 2.214c0.035 0.004 0.070 0.010 0.104 0.017-0.034-0.007-0.069-0.013-0.104-0.017z"></path>
<path fill="#f5f6f9" style="fill: var(--color3, #f5f6f9)" d="M13.69 4.357c0.004 0.002 0.008 0.004 0.012 0.006-0.004-0.002-0.008-0.004-0.012-0.006z"></path>
<path fill="#f5f6f9" style="fill: var(--color3, #f5f6f9)" d="M13.066 3.594c-0.002-0.010-0.005-0.019-0.007-0.029 0.002 0.010 0.005 0.020 0.007 0.029z"></path>
<path fill="#f5f6f9" style="fill: var(--color3, #f5f6f9)" d="M13.034 3.31c0.001-0.035 0.003-0.070 0.007-0.105-0.004 0.035-0.006 0.070-0.007 0.105z"></path>
<path fill="#f5f6f9" style="fill: var(--color3, #f5f6f9)" d="M13.048 3.509c-0.003-0.016-0.005-0.032-0.007-0.049 0.002 0.016 0.004 0.033 0.007 0.049z"></path>
<path fill="#f5f6f9" style="fill: var(--color3, #f5f6f9)" d="M14.538 2.273c0.016 0.006 0.031 0.012 0.046 0.018-0.015-0.006-0.030-0.012-0.046-0.018z"></path>
<path fill="#f5f6f9" style="fill: var(--color3, #f5f6f9)" d="M14.43 2.241c0.021 0.005 0.041 0.011 0.062 0.017-0.020-0.006-0.041-0.012-0.062-0.017z"></path>
<path fill="#f5f6f9" style="fill: var(--color3, #f5f6f9)" d="M13.509 4.253v0z"></path>
<path fill="#f5f6f9" style="fill: var(--color3, #f5f6f9)" d="M13.037 3.412c-0.001-0.021-0.002-0.043-0.002-0.064 0 0.022 0.001 0.043 0.002 0.064z"></path>
<path fill="#f5f6f9" style="fill: var(--color3, #f5f6f9)" d="M15.28 3.212c0.001 0.005 0.002 0.010 0.002 0.014 0 0.002 0.001 0.004 0.001 0.006-0.001-0.007-0.002-0.013-0.003-0.020z"></path>
<path fill="#f5f6f9" style="fill: var(--color3, #f5f6f9)" d="M13.787 4.396c0.007 0.002 0.013 0.005 0.020 0.008-0.007-0.002-0.013-0.005-0.020-0.008z"></path>
<path fill="#f5f6f9" style="fill: var(--color3, #f5f6f9)" d="M15.241 2.466l0.007-0.006c0.023-0.013 0.037-0.038 0.037-0.065 0-0.042-0.034-0.076-0.076-0.076-0.022 0-0.041 0.009-0.055 0.023l-0 0-0.22 0.174c0.036 0.034 0.070 0.070 0.101 0.108l0.002 0.002 0.1-0.080c0.16 0.206 0.256 0.467 0.256 0.751 0 0.68-0.551 1.231-1.231 1.231-0.383 0-0.726-0.175-0.951-0.45l-0.002-0.002 0.063-0.050c-0.028-0.036-0.056-0.077-0.081-0.119l-0.003-0.005-0.207 0.165c-0.022 0.013-0.037 0.038-0.037 0.065 0 0.042 0.034 0.076 0.076 0.076 0.021 0 0.041-0.009 0.055-0.023l0-0 0.032-0.025c0.215 0.261 0.521 0.44 0.869 0.488l0.007 0.001c-0.001 0.002-0.002 0.004-0.002 0.007l-0 0-0.028 0.247-0.397-0.046c-0.109-0.013-0.258 0.061-0.271 0.17l-0.002 0.022c-0.001 0.005-0.001 0.011-0.001 0.017s0 0.012 0.001 0.017l-0-0.001-0.015-0.002c-0.002-0-0.004-0-0.006-0-0.028 0-0.050 0.022-0.050 0.050 0 0.026 0.019 0.047 0.044 0.050l0 0 1.434 0.165c0.002 0 0.004 0 0.006 0 0.028 0 0.050-0.022 0.050-0.050 0-0.026-0.019-0.047-0.044-0.050l-0-0-0.009-0.001c0.004-0.009 0.006-0.021 0.007-0.032l0-0.001 0.003-0.022c0.013-0.109-0.116-0.215-0.225-0.227l-0.38-0.044 0.028-0.247c0-0 0-0 0-0 0-0.004-0-0.009-0.001-0.013l0 0c0.012 0 0.026 0.001 0.040 0.001 0.752 0 1.361-0.61 1.361-1.361 0-0.315-0.107-0.605-0.286-0.835l0.002 0.003z"></path>
<path fill="#f5f6f9" style="fill: var(--color3, #f5f6f9)" d="M13.509 4.253v0c0.028 0.020 0.058 0.039 0.088 0.056 0.002 0.001 0.003 0.002 0.005 0.003 0.028 0.016 0.057 0.030 0.087 0.044 0.004 0.002 0.008 0.004 0.012 0.006 0.028 0.012 0.056 0.023 0.085 0.033 0.007 0.002 0.013 0.005 0.020 0.008 0.028 0.009 0.057 0.016 0.085 0.023 0.008 0.002 0.016 0.005 0.025 0.007 0.031 0.007 0.069 0.014 0.109 0.019l0.005 0c0.039 0.005 0.083 0.007 0.129 0.007 0.313 0 0.595-0.128 0.799-0.334l0-0c-0.056 0.051-0.102 0.089-0.102 0.089 0-0.011 0.001-0.023 0.001-0.035 0-0.041-0.002-0.081-0.006-0.121l0 0.005c-0.007-0.057-0.061-0.105-0.046-0.034s-0.008 0.023-0.045 0.055-0.129 0.002-0.197-0.014-0.057 0.030-0.008 0.047-0.038 0.063-0.118 0.053c-0.020-0.005-0.043-0.008-0.066-0.008-0.046 0-0.089 0.011-0.128 0.030l0.002-0.001c-0.074 0.035-0.102 0.082-0.154 0.051s-0.092 0.053-0.135 0.012-0.094-0.005-0.137-0.047 0.019-0.065 0.087-0.099 0.019-0.048 0.076-0.106 0.063-0.037 0.067-0.121 0.017-0.054 0.073-0.075-0.016-0.033-0.008-0.074-0.015-0.044-0.061-0.080c-0.021-0.015-0.039-0.031-0.056-0.048l-0-0s-0.030 0.019-0.008-0.121 0.077-0.061 0.1-0.139 0.133-0.088 0.133-0.088c0.042-0.051 0.048 0.095 0.097 0.034s0.098 0.022 0.186 0.060 0.052 0.059 0.035 0.11-0.026 0.128 0.030 0.093-0.027 0.008 0.066 0.066 0.039-0.068 0.077-0.142 0.010-0.175-0.030-0.171-0.004 0.111-0.010 0.161-0.017-0.021-0.017-0.021l-0.034 0.010s-0.077-0.009-0.020-0.022 0.024-0.039 0.018-0.11-0.057-0.043-0.1-0.026-0.016-0.005-0.087-0.044 0.028-0.078 0.028-0.078 0.024-0.064 0.054-0.010 0.016 0.033 0.094 0.044 0.051-0.061 0-0.129 0.056-0.021 0.125-0.064 0.068 0.064 0.006 0.073-0.055 0.044-0.026 0.103-0.002-0.031 0.093 0.002-0.004-0.143 0.101-0.111 0.040-0.060 0.106-0.049 0.101 0.095 0.137 0.171 0.047 0.007 0.063 0.056 0.020 0.069 0.037-0.004c0.009-0.040 0.022-0.041 0.032-0.034-0.001-0.005-0.002-0.010-0.002-0.014-0.003-0.030-0.007-0.061-0.013-0.091-0.001-0.004-0.002-0.008-0.003-0.012-0.007-0.032-0.014-0.064-0.024-0.096-0.001-0.002-0.001-0.003-0.002-0.005-0.045-0.146-0.114-0.273-0.203-0.383l0.002 0.002c-0.033-0.040-0.066-0.076-0.102-0.109l-0.001-0.001c-0.078-0.074-0.168-0.138-0.266-0.188l-0.006-0.003-0.007-0.004c0.015 0.022 0.028 0.048 0.036 0.076l0.001 0.002c0.022 0.098 0.060 0.029 0.129 0.113s0.043 0.135 0.101 0.179 0.16 0.065 0.061 0.091-0.035-0.058-0.117-0.001-0.058-0.007-0.144-0.021 0.023-0.056-0.11-0.067-0.046-0.072 0.053-0.136 0.072-0.075-0.019-0.163 0.034 0.072-0.053 0.062-0.026 0.114-0.103 0.098-0.017-0.033-0.059-0.105 0.114 0.026 0.064-0.049-0.035 0.018-0.154-0.082-0.19 0.086-0.085 0.123 0.132-0.018 0.166 0.086c0.006 0.012 0.009 0.025 0.009 0.039 0 0.050-0.041 0.091-0.091 0.091-0.024 0-0.047-0.010-0.063-0.025l0 0c-0.080-0.059-0.065-0.1-0.089-0.006s-0.043 0.041-0.155 0.003-0.064 0.085-0.152 0.008-0.078-0.013-0.169 0.048 0.024-0.064-0.052-0.128-0.099 0.056-0.099 0.056 0.079 0.076-0.035 0.122-0.021 0.077 0.002 0.164 0.062 0.078 0.078 0.198-0.030 0.047-0.007 0.205-0.023 0.236-0.206 0.24-0.235 0.099-0.235 0.099-0.005 0.117-0.031 0.084-0.026-0.104 0.010-0.196-0.027-0.129 0.071-0.143 0.108-0.138 0.124-0.237-0.005-0.139 0.032-0.206 0.098 0.024 0.106-0.068-0.1-0.053-0.016-0.128 0.053-0.094 0.051-0.178 0.091-0.111 0.010-0.087c-0.035 0.010-0.024-0.027 0-0.073-0.258 0.181-0.435 0.463-0.474 0.787l-0.001 0.005c-0.004 0.035-0.006 0.070-0.007 0.105 0 0.013 0 0.025 0 0.038 0 0.021 0.001 0.043 0.002 0.064q0.002 0.024 0.004 0.048c0.002 0.016 0.004 0.033 0.007 0.049 0.003 0.019 0.006 0.037 0.010 0.056 0.002 0.010 0.005 0.020 0.007 0.029 0.028 0.117 0.071 0.22 0.127 0.314l-0.003-0.005c0.082 0.141 0.189 0.258 0.317 0.348l0.003 0.002zM14.143 4.306c0.216-0.034 0.144 0.056 0.059 0.047s-0.101 0.074-0.137 0.025 0.078-0.072 0.078-0.072zM15.057 2.93c0.039-0.063 0.094 0.036 0.094 0.036 0.022 0.065 0.044 0.013 0.046 0.106s-0.179-0.079-0.14-0.142zM14.732 2.821s0.016-0.028 0.062 0.007 0.086 0.056-0.005 0.046-0.057-0.053-0.057-0.053z"></path>
<path fill="#f5f6f9" style="fill: var(--color3, #f5f6f9)" d="M14.663 2.326c-0.009-0.005-0.018-0.009-0.027-0.014 0.007 0.003 0.013 0.007 0.020 0.010z"></path>
<path fill="#f5f6f9" style="fill: var(--color3, #f5f6f9)" d="M15.286 3.322c0 0.008 0.001 0.016 0.001 0.025 0-0.008-0.001-0.017-0.001-0.025z"></path>
<path fill="#f5f6f9" style="fill: var(--color3, #f5f6f9)" d="M13.893 4.427c0.008 0.002 0.016 0.005 0.025 0.007-0.008-0.002-0.016-0.005-0.025-0.007z"></path>
<path fill="#f5f6f9" style="fill: var(--color3, #f5f6f9)" d="M15.267 3.121c-0.001-0.004-0.002-0.008-0.003-0.012 0.001 0.004 0.002 0.008 0.003 0.012z"></path>
<path fill="#f5f6f9" style="fill: var(--color3, #f5f6f9)" d="M15.241 3.013c-0.001-0.002-0.001-0.003-0.002-0.005 0.001 0.002 0.001 0.004 0.002 0.005z"></path>
<path fill="#ffc25e" style="fill: var(--color5, #ffc25e)" d="M16.387 7.789c0.548 0.752 0.383 1.805-0.369 2.353s-1.805 0.383-2.353-0.369c-0.548-0.752-0.383-1.805 0.369-2.353s1.805-0.383 2.353 0.369z"></path>
<path fill="#f5f6f9" style="fill: var(--color3, #f5f6f9)" d="M14.783 8.752c-0.014 0.002-0.025 0.011-0.031 0.022l-0 0c-0.004 0.008-0.006 0.017-0.006 0.026 0 0.005 0.001 0.010 0.002 0.014l-0-0c0.004 0.024 0.024 0.043 0.049 0.043 0.003 0 0.006-0 0.010-0.001l-0 0 0.054-0.012-0.003-0.014s-0.028-0.089-0.074-0.079z"></path>
<path fill="#f5f6f9" style="fill: var(--color3, #f5f6f9)" d="M15.259 8.704c-0.004-0.024-0.024-0.043-0.049-0.043-0.003 0-0.006 0-0.010 0.001l0-0c-0.046 0.010-0.034 0.104-0.034 0.105l0.002 0.011 0.054-0.012c0.022-0.005 0.038-0.025 0.038-0.048 0-0.005-0.001-0.010-0.002-0.015l0 0z"></path>
<path fill="#f5f6f9" style="fill: var(--color3, #f5f6f9)" d="M14.946 8.9l0.168-0.037 0.097 0.445-0.168 0.037-0.097-0.445z"></path>
<path fill="#f5f6f9" style="fill: var(--color3, #f5f6f9)" d="M14.819 8.096c-0.234 0.070-0.401 0.283-0.401 0.535 0 0.207 0.113 0.388 0.281 0.485l0.003 0.001c0.056 0.033 0.097 0.087 0.111 0.152l0 0.002 0.026 0.119 0.133-0.029-0.097-0.446-0.054 0.012c-0.008 0.002-0.017 0.003-0.027 0.003-0.059 0-0.108-0.043-0.118-0.099l-0-0.001c-0.002-0.009-0.003-0.019-0.003-0.029 0-0.022 0.005-0.042 0.015-0.060l-0 0.001c0.016-0.030 0.045-0.052 0.079-0.059l0.001-0c0.090-0.020 0.143 0.074 0.159 0.132l0.003 0.016 0.169-0.037-0.003-0.014c-0.009-0.062-0.001-0.169 0.090-0.189 0.007-0.001 0.014-0.002 0.022-0.002 0.069 0 0.126 0.056 0.126 0.126 0 0.058-0.040 0.108-0.094 0.122l-0.001 0-0.054 0.012 0.097 0.445 0.143-0.031-0.028-0.128c-0.004-0.015-0.006-0.033-0.006-0.050 0-0.049 0.015-0.095 0.042-0.132l-0.001 0.001c0.063-0.089 0.101-0.201 0.101-0.321 0-0.308-0.25-0.558-0.558-0.558-0.056 0-0.11 0.008-0.161 0.024l0.004-0.001z"></path>
<path fill="#b0cf63" style="fill: var(--color2, #b0cf63)" d="M15.211 9.309l0.071-0.015 0.016 0.073-0.071 0.015-0.016-0.073z"></path>
<path fill="#b0cf63" style="fill: var(--color2, #b0cf63)" d="M14.972 9.361l0.071-0.015 0.016 0.073-0.071 0.015-0.016-0.073z"></path>
<path fill="#f5f6f9" style="fill: var(--color3, #f5f6f9)" d="M15.019 9.663c0.009 0.044 0.095 0.063 0.19 0.042s0.165-0.073 0.155-0.117z"></path>
<path fill="#f5f6f9" style="fill: var(--color3, #f5f6f9)" d="M15.429 9.401l-0.537 0.117c-0.005 0.002-0.010 0.003-0.016 0.003-0.021 0-0.038-0.013-0.046-0.031l-0-0c-0.005-0.022 0.015-0.045 0.044-0.051l0.537-0.117c0.005-0.002 0.010-0.003 0.016-0.003 0.021 0 0.038 0.013 0.046 0.031l0 0c0.005 0.022-0.015 0.045-0.044 0.051z"></path>
<path fill="#f5f6f9" style="fill: var(--color3, #f5f6f9)" d="M15.456 9.523l-0.537 0.117c-0.005 0.002-0.010 0.003-0.016 0.003-0.021 0-0.038-0.013-0.046-0.031l-0-0c-0.005-0.022 0.015-0.045 0.044-0.051l0.537-0.117c0.005-0.002 0.010-0.003 0.016-0.003 0.021 0 0.038 0.013 0.045 0.031l0 0c0.005 0.022-0.015 0.045-0.044 0.051z"></path>
<path fill="#f5f6f9" style="fill: var(--color3, #f5f6f9)" d="M15.372 8.043c-0.001 0-0.003 0-0.005 0-0.012 0-0.022-0.010-0.022-0.022 0-0.004 0.001-0.008 0.004-0.012l-0 0 0.13-0.202c0.004-0.006 0.011-0.011 0.019-0.011 0.012 0 0.022 0.010 0.022 0.022 0 0.005-0.001 0.009-0.004 0.013l0-0-0.13 0.202c-0.003 0.005-0.008 0.008-0.014 0.010l-0 0z"></path>
<path fill="#f5f6f9" style="fill: var(--color3, #f5f6f9)" d="M15.922 8.385l-0.239 0.052c-0.001 0-0.003 0.001-0.005 0.001-0.012 0-0.022-0.010-0.022-0.022 0-0.011 0.007-0.019 0.017-0.022l0-0 0.239-0.052c0.001-0 0.003-0.001 0.005-0.001 0.012 0 0.022 0.010 0.022 0.022 0 0.011-0.007 0.019-0.017 0.022l-0 0z"></path>
<path fill="#f5f6f9" style="fill: var(--color3, #f5f6f9)" d="M14.814 7.945c-0.001 0-0.003 0-0.005 0-0.011 0-0.020-0.008-0.022-0.018l-0-0-0.055-0.254c-0-0.001-0.001-0.003-0.001-0.005 0-0.013 0.010-0.023 0.023-0.023 0.011 0 0.020 0.008 0.022 0.018l0 0 0.055 0.254c0 0.001 0.001 0.003 0.001 0.005 0 0.011-0.008 0.020-0.018 0.022l-0 0z"></path>
<path fill="#f5f6f9" style="fill: var(--color3, #f5f6f9)" d="M14.391 8.258c-0.002 0-0.003 0.001-0.005 0.001-0.005 0-0.009-0.001-0.013-0.004l0 0-0.242-0.156c-0.007-0.004-0.011-0.012-0.011-0.020 0-0.013 0.011-0.024 0.024-0.024 0.005 0 0.010 0.002 0.013 0.004l-0-0 0.242 0.156c0.007 0.004 0.011 0.012 0.011 0.020 0 0.005-0.001 0.009-0.004 0.013l0-0c-0.003 0.005-0.009 0.009-0.015 0.010l-0 0z"></path>
<path fill="#f5f6f9" style="fill: var(--color3, #f5f6f9)" d="M14.239 8.751l-0.239 0.052c-0.001 0-0.003 0.001-0.005 0.001-0.012 0-0.022-0.010-0.022-0.022 0-0.011 0.007-0.019 0.017-0.022l0-0 0.239-0.052c0.001-0 0.003-0.001 0.005-0.001 0.012 0 0.022 0.010 0.022 0.022 0 0.011-0.007 0.019-0.017 0.022l-0 0z"></path>
<path fill="#ff3545" style="fill: var(--color6, #ff3545)" d="M20.002 4.888c0.454 0.637 0.305 1.521-0.332 1.974s-1.521 0.305-1.974-0.332c-0.454-0.637-0.305-1.521 0.332-1.974s1.521-0.305 1.974 0.332z"></path>
<path fill="#f5f6f9" style="fill: var(--color3, #f5f6f9)" d="M18.516 5.829l0.108-0.080c0.011-0.008 0.028-0.006 0.036 0.005l0.030 0.040c0.008 0.011 0.006 0.028-0.005 0.036l-0.108 0.080c-0.011 0.008-0.028 0.006-0.036-0.005l-0.030-0.040c-0.008-0.011-0.006-0.028 0.005-0.036z"></path>
<path fill="#f5f6f9" style="fill: var(--color3, #f5f6f9)" d="M18.52 5.821l0.065 0.088c0.004 0.008 0.006 0.017 0.006 0.026 0 0.021-0.012 0.040-0.029 0.050l-0 0-0.414 0.306c-0.010 0.010-0.024 0.016-0.040 0.016s-0.030-0.006-0.040-0.016v0l-0.065-0.088c-0.004-0.008-0.006-0.017-0.006-0.026 0-0.021 0.012-0.040 0.029-0.050l0-0 0.414-0.306c0.010-0.010 0.024-0.016 0.040-0.016s0.030 0.006 0.040 0.016v0z"></path>
<path fill="#f5f6f9" style="fill: var(--color3, #f5f6f9)" d="M19.546 5.156c-0.104-0.14-0.27-0.23-0.456-0.23-0.313 0-0.567 0.254-0.567 0.567s0.254 0.567 0.567 0.567c0.127 0 0.244-0.042 0.339-0.112l-0.002 0.001c0.14-0.104 0.23-0.27 0.23-0.456 0-0.127-0.042-0.244-0.112-0.339l0.001 0.002zM18.742 5.751c-0.053-0.071-0.085-0.161-0.085-0.258 0-0.24 0.194-0.434 0.434-0.434s0.434 0.194 0.434 0.434c0 0.143-0.069 0.269-0.175 0.348l-0.001 0.001c-0.071 0.053-0.161 0.085-0.258 0.085-0.143 0-0.269-0.069-0.348-0.175l-0.001-0.001z"></path>
<path fill="#ffc25e" style="fill: var(--color5, #ffc25e)" d="M5.032 3.268c0 0.828-0.671 1.499-1.499 1.499s-1.499-0.671-1.499-1.499c0-0.828 0.671-1.499 1.499-1.499s1.499 0.671 1.499 1.499z"></path>
<path fill="#f5f6f9" style="fill: var(--color3, #f5f6f9)" d="M2.554 3.738l-0.020 0.161 1.819 0.227 0.020-0.161-0.91-0.114z"></path>
<path fill="#f5f6f9" style="fill: var(--color3, #f5f6f9)" d="M4.521 2.78l-0.856-0.542-0.963 0.315 0.91 0.114z"></path>
<path fill="#f5f6f9" style="fill: var(--color3, #f5f6f9)" d="M4.305 3.020l0.179 0.022 0.020-0.161-1.819-0.227-0.020 0.161 0.187 0.023-0.084 0.674-0.183-0.023-0.020 0.16 1.819 0.227 0.020-0.161-0.183-0.023zM4.032 3.67l-0.233-0.029 0.084-0.674 0.233 0.029zM3.040 2.862l0.233 0.029-0.084 0.674-0.233-0.029zM3.378 3.588l0.084-0.674 0.233 0.029-0.084 0.674-0.116-0.015z"></path>
<path fill="#ff3545" style="fill: var(--color6, #ff3545)" d="M8.534 6.447c0.010 0.821-0.647 1.495-1.468 1.506s-1.495-0.647-1.506-1.468c-0.010-0.821 0.647-1.495 1.468-1.506s1.495 0.647 1.506 1.468z"></path>
<path fill="#f5f6f9" style="fill: var(--color3, #f5f6f9)" d="M6.966 7.421l0.082-0.882 0.144 0.013-0.033 0.352 0.389-0.541 0.789 0.477-0.075 0.124-0.675-0.408z"></path>
<path fill="#f5f6f9" style="fill: var(--color3, #f5f6f9)" d="M7.186 5.715l0.616-0.107 0.013 0.078-0.616 0.107-0.013-0.078z"></path>
<path fill="#f5f6f9" style="fill: var(--color3, #f5f6f9)" d="M5.934 6.265l0.070-0.126 0.643 0.356-0.070 0.126-0.643-0.356z"></path>
<path fill="#f5f6f9" style="fill: var(--color3, #f5f6f9)" d="M6.050 6.666l0.356-0.643 0.127 0.070-0.356 0.643-0.127-0.070z"></path>
<path fill="#fca67f" style="fill: var(--color7, #fca67f)" d="M9.796 11.479s0.252-0.058 0.233-0.66c0 0-0.524 0-0.631-0.378s-0.106-1.251-0.097-1.785c0 0-0.042-0.301 0.362-0.505s1.423-0.281 1.568 0.078 0.136 0.999 0.136 0.999 0.165-0.367 0.509-0.238c0.427 0.16 0.075 1.168-0.47 0.82 0 0-0.165 1.407 0.175 1.61 0 0-0.142 0.916-0.916 0.916s-0.869-0.858-0.869-0.858z"></path>
<path fill="#423149" style="fill: var(--color8, #423149)" d="M10.55 9.020c-0.043 0.019-0.047 0.077-0.048 0.118-0.001 0.008-0.001 0.018-0.001 0.028 0 0.042 0.005 0.082 0.016 0.12l-0.001-0.003c0.008 0.027 0.033 0.046 0.062 0.046s0.054-0.019 0.062-0.045l0-0c0.015-0.056 0.025-0.314-0.090-0.263z"></path>
<path fill="#423149" style="fill: var(--color8, #423149)" d="M9.76 9.016c-0.049 0.018-0.057 0.066-0.062 0.113-0.003 0.019-0.004 0.041-0.004 0.063 0 0.033 0.003 0.065 0.010 0.095l-0.001-0.003c0.008 0.027 0.033 0.046 0.062 0.046s0.054-0.019 0.062-0.045l0-0c0.010-0.035 0.015-0.075 0.015-0.116 0-0.019-0.001-0.038-0.004-0.056l0 0.002c-0.004-0.036-0.023-0.118-0.079-0.098z"></path>
<path fill="#423149" style="fill: var(--color8, #423149)" d="M9.549 29.241c0.008 0.113 0.013 0.245 0.013 0.378s-0.005 0.265-0.014 0.396l0.001-0.018c-0.032 0.262-1.246 0.887-1.973 1.047 0 0 1.097-0.844 1.257-1.149 0.095-0.191 0.158-0.414 0.174-0.649l0-0.005z"></path>
<path fill="#423149" style="fill: var(--color8, #423149)" d="M12.31 29.241c0.008 0.113 0.013 0.245 0.013 0.378s-0.005 0.265-0.014 0.396l0.001-0.018c-0.032 0.262-1.246 0.887-1.973 1.047 0 0 1.097-0.844 1.257-1.149 0.096-0.191 0.158-0.414 0.174-0.649l0-0.005z"></path>
<path fill="#87b7e6" style="fill: var(--color9, #87b7e6)" d="M12.795 18.442h-4.254v0.319s0.017 8.294 0.278 10.413c0 0 0.573 0.137 0.937 0 0 0 0.41-5.031 0.627-9.041 0.016-0.13 0.126-0.229 0.259-0.229 0.005 0 0.011 0 0.016 0l-0.001-0h0.021c0.005-0 0.010-0 0.015-0 0.133 0 0.243 0.099 0.259 0.228l0 0.001c0.217 4.010 0.627 9.041 0.627 9.041 0.364 0.137 0.937 0 0.937 0 0.26-2.118 0.278-10.413 0.278-10.413z"></path>
<path fill="#423149" style="fill: var(--color8, #423149)" d="M11.487 7.761s-0.021-0.699-0.837-0.602-0.601 0.652-1.13 0.556c-0.755-0.137-0.711 0.504-0.491 0.748 0.273 0.303 0.814 0.428 1.146 0 0.239-0.308 0.57-0.526 0.978-0.167v0.597s0.010 0.378 0.165 0.184v0.169s-0.019 0.204 0.048 0.204 0.055-0.271 0.055-0.271 0.090-0.2 0.287-0.213c0.034-0.107 0.077-0.2 0.128-0.287l-0.004 0.007c0.113-0.205 0.15-0.481 0.098-0.641-0.070-0.219-0.268-0.36-0.443-0.285z"></path>
<path fill="#ffc25e" style="fill: var(--color5, #ffc25e)" d="M8.541 18.442l-0.098-4.185-0.302-2.307s0.272-0.274 0.859-0.329 0.796-0.143 0.796-0.143 0.106 0.468 0.853 0.468 0.932-0.527 0.932-0.527 0.488 0.312 0.882 0.502 0.992 0.448 1.264 0.829-0.513 2.906-0.932 2.636v3.054z"></path>
<path fill="#fca67f" style="fill: var(--color7, #fca67f)" d="M8.514 12.060c-0.517-0.001-0.84 0.711-1.213 1.109-0.469 0.499-1.177 1.373-2.821 0.19-0.493-0.355-1.211-1.441-1.211-1.441s-0.002-0.322-0.351-0.603c-0.13-0.1-0.245-0.2-0.353-0.306l0.001 0.001c-0.203-0.183-0.144 0.184 0.082 0.425-0.194-0.056-0.805-0.082-1.048-0.111s-0.38 0.001-0.424 0.081c-0.035 0.065 0.587 0.122 0.818 0.14-0.24-0.017-0.917-0.058-0.979 0.026-0.083 0.113 0.138 0.101 0.811 0.177 0 0-0.591-0.022-0.771 0.046-0.212 0.080-0.033 0.15 0.185 0.167 0.252 0.021 0.677 0.051 0.677 0.051s-0.512-0.014-0.674 0.076c-0.113 0.062-0.030 0.128 0.137 0.133 0.143 0.005 1.149 0.045 1.442 0.057 0.625 2.249 2.189 3.154 3.608 2.984 1.427-0.17 2.045-1.289 2.358-1.607 0-0 0.362-1.595-0.271-1.596z"></path>
<path fill="#ffc25e" style="fill: var(--color5, #ffc25e)" d="M6.864 13.418l1.053 1.355 2.436-2.364-1.813-0.671s-0.544 0.054-1.006 0.839c-0.221 0.376-0.671 0.84-0.671 0.84z"></path>
<path fill="#df5332" style="fill: var(--color10, #df5332)" d="M6.864 13.418l1.053 1.355 0.225-0.223-1.096-1.357z"></path>
<path fill="#9ab559" style="fill: var(--color11, #9ab559)" d="M9.224 14.363v-1.527l2.744 1.104v2.452l-2.744-1.014z"></path>
<path fill="#9ab559" style="fill: var(--color11, #9ab559)" d="M9.846 14.069v-1.527l2.744 1.104v2.452l-2.744-1.014z"></path>
<path fill="#9ab559" style="fill: var(--color11, #9ab559)" d="M11.968 13.94l0.622-0.294v2.452l-0.622 0.326z"></path>
<path fill="#f5f6f9" style="fill: var(--color3, #f5f6f9)" d="M9.333 12.88s0.703 0.157 0.561-0.236l2.602 1.047-0.529 0.249z"></path>
<path fill="#ff3545" style="fill: var(--color6, #ff3545)" d="M8.601 14.827v-1.527l2.744 1.104v2.452l-2.744-1.014z"></path>
<path fill="#ff3545" style="fill: var(--color6, #ff3545)" d="M9.224 14.533v-1.527l2.744 1.104v2.452l-2.744-1.014z"></path>
<path fill="#ff3545" style="fill: var(--color6, #ff3545)" d="M11.345 14.403l0.622-0.294v2.452l-0.622 0.326z"></path>
<path fill="#f5f6f9" style="fill: var(--color3, #f5f6f9)" d="M8.711 13.343s0.703 0.157 0.561-0.236l2.602 1.047-0.529 0.249z"></path>
<path fill="#fca67f" style="fill: var(--color7, #fca67f)" d="M13.149 12.737l-0.456 1.971c-0.533 2.781-3.826 1.136-3.826 1.136 0.054-0.145 0.102-0.318 0.134-0.497l0.003-0.018c0.018-0.182 0.027-0.163 0.046-0.287s-0.188-0.094-0.258 0.104c-0.047 0.134-0.12 0.111-0.163 0.082-0.014-0.016-0.025-0.034-0.032-0.055l-0-0.001 0.005-0.045v-0.192s-0.064-0.016-0.257 0.073c-0.162 0.058-0.151 0.171-0.151 0.171-0.164 0.071-0.116 0.091-0.196 0.303-0.087 0.227 0.396 0.874 0.396 0.874 1.653 1.668 3.559 1.375 4.493 0.475 1.171-1.127 1.511-3.594 0.263-4.096z"></path>
<path fill="#ffc25e" style="fill: var(--color5, #ffc25e)" d="M12.454 15.274s0.872 0.423 1.591 0.396c0 0 0.714-2.86-0.95-3.39z"></path>
<path fill="#df5332" style="fill: var(--color10, #df5332)" d="M14.045 15.67s-0.667 0.063-1.591-0.396l0.073-0.343s0.877 0.392 1.589 0.377z"></path>
<path fill="#df5332" style="fill: var(--color10, #df5332)" d="M10.65 12.28c0.010 0 0.021 0 0.033 0 0.5 0 0.935-0.281 1.153-0.695l0.003-0.007c-0.1-0.053-0.184-0.106-0.265-0.163l0.007 0.005s-0.184 0.527-0.932 0.527-0.853-0.468-0.853-0.468c-0.088 0.032-0.192 0.059-0.299 0.076l-0.010 0.001c0.1 0.242 0.395 0.724 1.163 0.724z"></path>
<path fill="#dadbde" style="fill: var(--color12, #dadbde)" d="M10.693 18.776c0-0.078-0.063-0.141-0.141-0.141s-0.141 0.063-0.141 0.141c0 0.078 0.063 0.141 0.141 0.141v0c0.078 0 0.141-0.063 0.141-0.141v0z"></path>
</symbol>
<symbol id="icon-vector-2" viewBox="0 0 39 32">
<path fill="#451fad" style="fill: var(--color13, #451fad)" d="M3.922 6.344h27.075v20.431h-27.075v-20.431z"></path>
<path fill="#ebe8fa" style="fill: var(--color14, #ebe8fa)" d="M4.371 7.193h26.176v19.15h-26.176v-19.15z"></path>
<path fill="#b6c3f4" style="fill: var(--color15, #b6c3f4)" d="M6.219 11.342h1.89c0.11 0 0.199 0.089 0.199 0.199v0.095c0 0.11-0.089 0.199-0.199 0.199h-1.89c-0.11 0-0.199-0.089-0.199-0.199v-0.095c0-0.11 0.089-0.199 0.199-0.199z"></path>
<path fill="#b6c3f4" style="fill: var(--color15, #b6c3f4)" d="M9.651 11.342h1.89c0.11 0 0.199 0.089 0.199 0.199v0.095c0 0.11-0.089 0.199-0.199 0.199h-1.89c-0.11 0-0.199-0.089-0.199-0.199v-0.095c0-0.11 0.089-0.199 0.199-0.199z"></path>
<path fill="#b6c3f4" style="fill: var(--color15, #b6c3f4)" d="M13.082 11.342h1.89c0.11 0 0.199 0.089 0.199 0.199v0.095c0 0.11-0.089 0.199-0.199 0.199h-1.89c-0.11 0-0.199-0.089-0.199-0.199v-0.095c0-0.11 0.089-0.199 0.199-0.199z"></path>
<path fill="#b6c3f4" style="fill: var(--color15, #b6c3f4)" d="M16.514 11.342h1.89c0.11 0 0.199 0.089 0.199 0.199v0.095c0 0.11-0.089 0.199-0.199 0.199h-1.89c-0.11 0-0.199-0.089-0.199-0.199v-0.095c0-0.11 0.089-0.199 0.199-0.199z"></path>
<path fill="#b6c3f4" style="fill: var(--color15, #b6c3f4)" d="M19.946 11.342h1.89c0.11 0 0.199 0.089 0.199 0.199v0.095c0 0.11-0.089 0.199-0.199 0.199h-1.89c-0.11 0-0.199-0.089-0.199-0.199v-0.095c0-0.11 0.089-0.199 0.199-0.199z"></path>
<path fill="#b6c3f4" style="fill: var(--color15, #b6c3f4)" d="M23.378 11.342h1.89c0.11 0 0.199 0.089 0.199 0.199v0.095c0 0.11-0.089 0.199-0.199 0.199h-1.89c-0.11 0-0.199-0.089-0.199-0.199v-0.095c0-0.11 0.089-0.199 0.199-0.199z"></path>
<path fill="#98abef" style="fill: var(--color16, #98abef)" d="M26.81 11.342h1.89c0.11 0 0.199 0.089 0.199 0.199v0.095c0 0.11-0.089 0.199-0.199 0.199h-1.89c-0.11 0-0.199-0.089-0.199-0.199v-0.095c0-0.11 0.089-0.199 0.199-0.199z"></path>
<path fill="#d3196a" style="fill: var(--color17, #d3196a)" d="M4.371 6.694h26.176v3.541h-26.176v-3.541z"></path>
<path fill="#f7cb2d" style="fill: var(--color18, #f7cb2d)" d="M20.695 15.429l0.282 0.636 0.635 0.069-0.502 0.436 0.151 0.706-0.567-0.367-0.567 0.367 0.151-0.706-0.501-0.436 0.635-0.069z"></path>
<path fill="#b6c3f4" style="fill: var(--color15, #b6c3f4)" d="M6.119 15.893h1.655c0.066 0 0.119 0.053 0.119 0.119v0.056c0 0.066-0.053 0.119-0.119 0.119h-1.655c-0.066 0-0.119-0.053-0.119-0.119v-0.056c0-0.066 0.053-0.119 0.119-0.119z"></path>
<path fill="#b6c3f4" style="fill: var(--color15, #b6c3f4)" d="M13.335 13.54h1.655c0.066 0 0.119 0.053 0.119 0.119v0 0.056c0 0.066-0.053 0.119-0.119 0.119v0h-1.655c-0.066 0-0.119-0.053-0.119-0.119v0-0.056c0-0.066 0.053-0.119 0.119-0.119 0 0 0 0 0 0v0z"></path>
<path fill="#b6c3f4" style="fill: var(--color15, #b6c3f4)" d="M16.615 21.434h1.749c0.032 0 0.057 0.026 0.057 0.057v0.027c0 0.032-0.026 0.057-0.057 0.057h-1.749c-0.032 0-0.057-0.026-0.057-0.057v-0.027c0-0.032 0.026-0.057 0.057-0.057z"></path>
<path fill="#b6c3f4" style="fill: var(--color15, #b6c3f4)" d="M16.615 21.784h1.749c0.032 0 0.057 0.026 0.057 0.057v0.027c0 0.032-0.026 0.057-0.057 0.057h-1.749c-0.032 0-0.057-0.026-0.057-0.057v-0.027c0-0.032 0.026-0.057 0.057-0.057z"></path>
<path fill="#b6c3f4" style="fill: var(--color15, #b6c3f4)" d="M16.615 22.135h1.749c0.032 0 0.057 0.026 0.057 0.057v0.027c0 0.032-0.026 0.057-0.057 0.057h-1.749c-0.032 0-0.057-0.026-0.057-0.057v-0.027c0-0.032 0.026-0.057 0.057-0.057z"></path>
<path fill="#b6c3f4" style="fill: var(--color15, #b6c3f4)" d="M6.057 16.514h1.273c0.031 0 0.056 0.025 0.056 0.056v0.027c0 0.031-0.025 0.056-0.056 0.056h-1.273c-0.031 0-0.056-0.025-0.056-0.056v-0.027c0-0.031 0.025-0.056 0.056-0.056z"></path>
<path fill="#d3196a" style="fill: var(--color17, #d3196a)" d="M19.124 17.503c0.652 0.917 1.848 1.306 2.752 0.524 0.893-0.773 0.705-2.187 0.009-3.033-1.755-2.137-4.632 1.89-2.347 3.162 0.013 0.006 0.028 0.010 0.044 0.010 0.055 0 0.1-0.045 0.1-0.1 0-0.027-0.011-0.052-0.028-0.070l0 0c-0.334-0.347-0.539-0.819-0.539-1.339 0-0.4 0.122-0.772 0.33-1.080l-0.004 0.007c0.533-0.805 1.589-1.162 2.247-0.304 0.537 0.699 0.718 1.845-0.002 2.487-0.756 0.674-1.823 0.359-2.409-0.388-0.070-0.089-0.22 0.031-0.153 0.125z"></path>
<path fill="#f2eafa" style="fill: var(--color19, #f2eafa)" d="M7.845 7.839c-0.012-0.209-0.184-0.373-0.395-0.373-0.218 0-0.395 0.177-0.395 0.395s0.177 0.395 0.395 0.395c0 0 0 0 0 0h-0c0.219-0.007 0.395-0.186 0.395-0.406 0-0.004-0-0.008-0-0.012v0.001z"></path>
<path fill="#f2eafa" style="fill: var(--color19, #f2eafa)" d="M9.374 7.839c-0.012-0.209-0.184-0.373-0.395-0.373-0.218 0-0.395 0.177-0.395 0.395s0.177 0.395 0.395 0.395c0 0 0 0 0 0v0c0.219-0.007 0.395-0.186 0.395-0.406 0-0.004-0-0.008-0-0.012v0.001z"></path>
<path fill="#100c82" style="fill: var(--color20, #100c82)" d="M7.397 5.31h0.095c0.11 0 0.2 0.090 0.2 0.2v2.374c0 0.11-0.090 0.2-0.2 0.2h-0.095c-0.11 0-0.2-0.090-0.2-0.2v0-2.374c0-0.11 0.090-0.2 0.2-0.2v0z"></path>
<path fill="#100c82" style="fill: var(--color20, #100c82)" d="M8.932 5.31h0.095c0 0 0 0 0 0 0.11 0 0.2 0.090 0.2 0.2v0 2.374c0 0.11-0.089 0.2-0.2 0.2h-0.095c-0.11 0-0.2-0.090-0.2-0.2v0-2.374c0-0.11 0.090-0.2 0.2-0.2v0z"></path>
<path fill="#f2eafa" style="fill: var(--color19, #f2eafa)" d="M26.334 7.839c-0.012-0.209-0.184-0.373-0.395-0.373-0.218 0-0.395 0.177-0.395 0.395s0.177 0.395 0.395 0.395c0 0 0 0 0 0h-0c0.219-0.007 0.395-0.186 0.395-0.406 0-0.004-0-0.008-0-0.012v0.001z"></path>
<path fill="#f2eafa" style="fill: var(--color19, #f2eafa)" d="M27.863 7.839c-0.012-0.209-0.184-0.373-0.395-0.373-0.218 0-0.395 0.177-0.395 0.395s0.177 0.395 0.395 0.395c0 0 0 0 0 0h-0c0.219-0.007 0.395-0.186 0.395-0.406 0-0.004-0-0.008-0-0.012v0.001z"></path>
<path fill="#100c82" style="fill: var(--color20, #100c82)" d="M25.886 5.31h0.095c0.11 0 0.2 0.090 0.2 0.2v2.374c0 0.11-0.090 0.2-0.2 0.2h-0.095c-0.11 0-0.2-0.090-0.2-0.2v0-2.374c0-0.11 0.090-0.2 0.2-0.2v0z"></path>
<path fill="#100c82" style="fill: var(--color20, #100c82)" d="M27.421 5.31h0.095c0.11 0 0.2 0.090 0.2 0.2v0 2.374c0 0.11-0.090 0.2-0.2 0.2h-0.095c-0.11 0-0.2-0.090-0.2-0.2v0-2.374c0-0.11 0.090-0.2 0.2-0.2v0z"></path>
<path fill="#f7aa2d" style="fill: var(--color21, #f7aa2d)" d="M23.984 21.389l1.243-0.478 0.478 1.243-1.243 0.478-0.478-1.243z"></path>
<path fill="#d3196a" style="fill: var(--color17, #d3196a)" d="M24.727 21.28c0-0.041-0.034-0.075-0.075-0.075s-0.075 0.034-0.075 0.075c0 0.041 0.034 0.075 0.075 0.075v0c0.041 0 0.075-0.034 0.075-0.075v0z"></path>
<path fill="#f7cb2d" style="fill: var(--color18, #f7cb2d)" d="M23.438 21.058l1.304 0.273-0.273 1.304-1.304-0.273 0.273-1.304z"></path>
<path fill="#d3196a" style="fill: var(--color17, #d3196a)" d="M24.095 21.355c0-0.041-0.034-0.075-0.075-0.075s-0.075 0.034-0.075 0.075c0 0.041 0.034 0.075 0.075 0.075v0c0.041-0 0.075-0.034 0.075-0.075v0z"></path>
<path fill="#100c82" style="fill: var(--color20, #100c82)" d="M8.834 29.969l-0.365 0.032-1.679 1.104 1.29-1.758 0.794 0.248z"></path>
<path fill="#4e69d1" style="fill: var(--color22, #4e69d1)" d="M13.719 27.958s0.048-0.722-1.066-0.847-2.393 0.152-2.393 0.152l0.566 1.108z"></path>
<path fill="#100c82" style="fill: var(--color20, #100c82)" d="M9.478 30.74l-0.405 0.035-1.863 1.224 1.43-1.95 0.88 0.275z"></path>
<path fill="#6c88ef" style="fill: var(--color23, #6c88ef)" d="M10.12 26.245l0.929 1.606s2.94-0.582 3.662 0.242-0.143 2.166-2.292 2.542-3.088 0.469-3.088 0.469l-0.155-0.787s-2.137 0.195-1.334-4.103c-0-0 0.7 0.393 2.278 0.031z"></path>
<path fill="#ff979c" style="fill: var(--color24, #ff979c)" d="M10.758 20.17c-0.065 0.158-0.128 0.286-0.198 0.41l0.010-0.020 0.002 0.396-0.353 0.007-0.080-0.492s0.014-0.591-0.001-0.955c-0.008-0.203 0.42-0.494 0.679-0.601 0.154-0.063-0.050 0.263-0.29 0.442 0.058 0.31 0.137 0.582 0.241 0.843l-0.011-0.030z"></path>
<path fill="#ff979c" style="fill: var(--color24, #ff979c)" d="M13.933 20.341c0.082 0.141 0.161 0.259 0.246 0.372l-0.007-0.010 0.051 0.393 0.351-0.040 0.013-0.499s-0.093-0.584-0.127-0.947c-0.019-0.202-0.483-0.433-0.754-0.504-0.161-0.042 0.085 0.253 0.346 0.4-0.015 0.304-0.057 0.59-0.126 0.866l0.006-0.031z"></path>
<path fill="#fff" style="fill: var(--color25, #fff)" d="M10.648 17.377l3.627 0.24-0.201 3.034-3.627-0.24 0.201-3.034z"></path>
<path fill="#b6c3f4" style="fill: var(--color15, #b6c3f4)" d="M12.109 18.317l1.037 0.069c0.017 0.001 0.030 0.016 0.029 0.034l-0.009 0.129c-0.001 0.017-0.016 0.030-0.034 0.029l-1.037-0.069c-0.017-0.001-0.030-0.016-0.029-0.034l0.009-0.129c0.001-0.017 0.016-0.030 0.034-0.029z"></path>
<path fill="#b6c3f4" style="fill: var(--color15, #b6c3f4)" d="M12.075 18.822l1.037 0.069c0.017 0.001 0.030 0.016 0.029 0.034l-0.008 0.129c-0.001 0.017-0.016 0.030-0.034 0.029l-1.037-0.069c-0.017-0.001-0.030-0.016-0.029-0.034l0.008-0.129c0.001-0.017 0.016-0.030 0.034-0.029z"></path>
<path fill="#b6c3f4" style="fill: var(--color15, #b6c3f4)" d="M12.041 19.347l1.037 0.069c0.017 0.001 0.030 0.016 0.029 0.034l-0.009 0.129c-0.001 0.017-0.016 0.030-0.034 0.029l-1.037-0.069c-0.017-0.001-0.030-0.016-0.029-0.034l0.009-0.129c0.001-0.017 0.016-0.030 0.034-0.029z"></path>
<path fill="#d3196a" style="fill: var(--color17, #d3196a)" d="M11.844 18.395c0-0.003 0-0.006 0-0.010 0-0.081-0.065-0.146-0.146-0.146s-0.146 0.065-0.146 0.146c0 0.077 0.060 0.14 0.136 0.145l0 0c0.003 0 0.006 0 0.009 0 0.077 0 0.14-0.060 0.146-0.136l0-0z"></path>
<path fill="#451fad" style="fill: var(--color13, #451fad)" d="M11.811 18.9c0-0.003 0-0.006 0-0.010 0-0.081-0.065-0.146-0.146-0.146s-0.146 0.065-0.146 0.146c0 0.077 0.060 0.14 0.136 0.145l0 0c0.003 0 0.007 0 0.010 0 0.077 0 0.14-0.060 0.145-0.136l0-0z"></path>
<path fill="#f7cb2d" style="fill: var(--color18, #f7cb2d)" d="M11.776 19.426c0-0.003 0-0.006 0-0.010 0-0.081-0.065-0.146-0.146-0.146s-0.146 0.065-0.146 0.146c0 0.077 0.060 0.14 0.136 0.145l0 0c0.003 0 0.007 0 0.010 0 0.077 0 0.14-0.060 0.145-0.136l0-0z"></path>
<path fill="#ff979c" style="fill: var(--color24, #ff979c)" d="M14.187 20.693s-0.342-0.707-0.534-0.968 0.032-0.296 0.266-0.093c0.289 0.253 0.449 0.179 0.449 0.179l0.007 0.437z"></path>
<path fill="#ff979c" style="fill: var(--color24, #ff979c)" d="M10.58 20.632s0.244-0.747 0.399-1.031-0.072-0.289-0.276-0.056c-0.253 0.289-0.421 0.238-0.421 0.238l0.052 0.434z"></path>
<path fill="#451fad" style="fill: var(--color13, #451fad)" d="M10.671 20.594s0.276 1.564-0.947 2.029l-0.633-0.675c0.627-0.338 0.804-0.799 0.875-1.295z"></path>
<path fill="#d3196a" style="fill: var(--color17, #d3196a)" d="M6.553 18.278c-0.338-0.077-0.696 0.074-0.797 0.453-0.090 0.339 0.083 0.709 0.035 1.060-0.042 0.312-0.248 0.553-0.435 0.782s-0.374 0.5-0.366 0.817c0.008 0.29 0.206 0.561 0.452 0.619 0.074 0.017 0.15 0.017 0.223 0.039 0.296 0.089 0.433 0.492 0.453 0.845s-0.029 0.723 0.093 1.049c0.171 0.428 0.582 0.724 1.063 0.724 0.068 0 0.135-0.006 0.199-0.017l-0.007 0.001c0.551-0.109 0.98-0.639 1.528-0.764 0.186-0.042 0.377-0.035 0.564-0.065 0.203-0.021 0.38-0.121 0.501-0.268l0.001-0.001c0.122-0.167 0.154-0.4 0.255-0.585 0.133-0.245 0.375-0.385 0.523-0.618 0.093-0.153 0.149-0.338 0.149-0.536 0-0.136-0.026-0.266-0.073-0.385l0.002 0.007c-0.147-0.365-0.498-0.618-0.543-1.015-0.029-0.258 0.082-0.503 0.154-0.748 0.061-0.19 0.095-0.409 0.095-0.636 0-0.198-0.027-0.391-0.077-0.573l0.004 0.015c-0.111-0.386-0.406-0.974-1.15-1.099-0.467-0.078-1.013 0.145-1.865-0.009-0.556-0.1-0.823 0.282-0.981 0.905z"></path>
<path fill="#ff979c" style="fill: var(--color24, #ff979c)" d="M8.91 22.291s-0.288-0.331-0.245-1.25c0 0 0.678-0.152 0.704-0.683 0-0.018 0-0.040 0-0.062 0-0.503-0.058-0.993-0.169-1.463l0.009 0.043s-0.017-0.296-0.443-0.415-1.418 0.001-1.489 0.373 0.060 0.984 0.060 0.984c-0.083-0.104-0.209-0.17-0.351-0.17-0.066 0-0.129 0.014-0.186 0.040l0.003-0.001c-0.329 0.143 0.064 1.22 0.607 0.696 0 0 0.515 1.482 0.052 1.587 0 0 0.168 0.887 1.14 0.694s0.306-0.375 0.306-0.375z"></path>
<path fill="#4a31b2" style="fill: var(--color26, #4a31b2)" d="M8.288 19.425c0.035 0.011 0.046 0.061 0.051 0.096 0.005 0.025 0.008 0.054 0.008 0.083 0 0.015-0.001 0.030-0.002 0.045l0-0.002c-0.002 0.026-0.024 0.046-0.050 0.046-0.021 0-0.040-0.014-0.047-0.032l-0-0c-0.019-0.046-0.056-0.266 0.040-0.235z"></path>
<path fill="#4a31b2" style="fill: var(--color26, #4a31b2)" d="M8.904 19.337c0.040 0.010 0.052 0.050 0.062 0.090 0.009 0.033 0.015 0.072 0.015 0.111 0 0.008-0 0.016-0.001 0.023l0-0.001c-0.002 0.026-0.024 0.046-0.050 0.046-0.021 0-0.040-0.014-0.047-0.032l-0-0c-0.017-0.043-0.028-0.092-0.029-0.143v-0c-0.001-0.031 0.004-0.104 0.051-0.093z"></path>
<path fill="#d3196a" style="fill: var(--color17, #d3196a)" d="M7.96 19.226c0.068-0.059 0.158-0.095 0.256-0.095 0.035 0 0.068 0.005 0.101 0.013l-0.003-0.001c0.005 0.001 0.010 0.002 0.015 0.002 0.036 0 0.065-0.029 0.065-0.065 0-0.023-0.012-0.043-0.030-0.055l-0-0c-0.046-0.030-0.103-0.048-0.164-0.048-0.137 0-0.254 0.090-0.293 0.215l-0.001 0.002c-0.001 0.002-0.001 0.005-0.001 0.007 0 0.018 0.014 0.032 0.032 0.032 0.008 0 0.016-0.003 0.022-0.009l-0 0z"></path>
<path fill="#d3196a" style="fill: var(--color17, #d3196a)" d="M9.028 19.048c-0.029-0.143-0.224-0.172-0.318-0.072-0.011 0.012-0.018 0.027-0.018 0.045 0 0.036 0.029 0.065 0.065 0.065 0.005 0 0.011-0.001 0.016-0.002l-0 0c0.031-0.010 0.067-0.016 0.104-0.016 0.040 0 0.079 0.007 0.114 0.019l-0.002-0.001c0.002 0.001 0.005 0.001 0.008 0.001 0.018 0 0.032-0.014 0.032-0.032 0-0.003-0-0.006-0.001-0.008l0 0z"></path>
<path fill="#d3196a" style="fill: var(--color17, #d3196a)" d="M9.389 18.006c0.026 0.182-0.161 0.488-0.333 0.55-0.361 0.13-0.767-0.094-1.109 0.080-0.285 0.153-0.475 0.448-0.475 0.788 0 0.007 0 0.014 0 0.021l-0-0.001c0.007 0.188 0.073 0.383 0.005 0.558-0.133-0.146-0.236-0.322-0.299-0.516l-0.003-0.010 0.1-1.317z"></path>
<path fill="#451fad" style="fill: var(--color13, #451fad)" d="M10.334 23.771c0.004 0.111 0.007 0.242 0.007 0.373 0 0.744-0.080 1.47-0.233 2.168l0.012-0.067s-1.472 0.57-2.278-0.031c0 0-0.854-1.509-1.036-2.737-0.233-1.57 0.441-3.444 3.528 0.294z"></path>
<path fill="#451fad" style="fill: var(--color13, #451fad)" d="M7.615 21.433c0.228 0.061 0.49 0.095 0.76 0.095 0.088 0 0.175-0.004 0.262-0.011l-0.011 0.001c0.567-0.045 1.193 0.040 1.817 0.646s0.908 0.79 1.818 0.716c0.703-0.057 1.453-0.811 1.773-2.136l0.67 0.044s-0.235 5.113-4.996 3.088c0 0-2.372 0.429-2.653 0.161s-0.776-2.71 0.561-2.605z"></path>
<path fill="#100c82" style="fill: var(--color20, #100c82)" d="M17.091 2.89c-0.119 0.043-0.256 0.068-0.398 0.068-0.294 0-0.563-0.106-0.772-0.281l0.002 0.002c-0.116-0.093-0.203-0.219-0.247-0.363l-0.001-0.005c-0.010-0.035-0.016-0.075-0.016-0.116 0-0.117 0.047-0.223 0.123-0.3l-0 0c0.112-0.103 0.286-0.127 0.378-0.248 0.115-0.152 0.043-0.365 0.015-0.553-0.034-0.224 0.038-0.5 0.253-0.572 0.143-0.048 0.307 0.011 0.449-0.040s0.224-0.193 0.321-0.309 0.254-0.218 0.389-0.151c0.056 0.037 0.104 0.078 0.148 0.123l0 0c0.187 0.149 0.457 0.078 0.69 0.024s0.535-0.051 0.643 0.162c0.13 0.258-0.147 0.609 0.022 0.843 0.051 0.057 0.109 0.106 0.173 0.146l0.003 0.002c0.239 0.179 0.367 0.539 0.201 0.788-0.207 0.31-0.691 0.262-0.979 0.498z"></path>
<path fill="#ff979c" style="fill: var(--color24, #ff979c)" d="M18.269 4.765s-0.171-0.144-0.152-0.737c0 0 0.517 0 0.622-0.373s0.105-1.235 0.096-1.761c0 0 0.041-0.297-0.358-0.498s-1.404-0.278-1.547 0.077-0.134 0.986-0.134 0.986c-0.076-0.147-0.227-0.246-0.402-0.246-0.036 0-0.071 0.004-0.104 0.012l0.003-0.001c-0.354 0.077-0.177 1.22 0.464 0.809 0 0 0.173 1.524-0.307 1.536 0 0 0.037 0.957 1.038 0.957s0.78-0.76 0.78-0.76z"></path>
<path fill="#4a31b2" style="fill: var(--color26, #4a31b2)" d="M17.794 2.449c0.033 0.018 0.034 0.070 0.032 0.105-0 0.045-0.007 0.088-0.020 0.129l0.001-0.003c-0.006 0.022-0.026 0.037-0.049 0.037-0.025 0-0.046-0.018-0.050-0.043l-0-0c-0.009-0.049-0.003-0.274 0.086-0.225z"></path>
<path fill="#4a31b2" style="fill: var(--color26, #4a31b2)" d="M18.421 2.484c0.038 0.018 0.042 0.060 0.043 0.101 0.001 0.009 0.001 0.019 0.001 0.029 0 0.038-0.005 0.074-0.014 0.109l0.001-0.003c-0.006 0.022-0.026 0.037-0.049 0.037-0.025 0-0.046-0.019-0.050-0.043l-0-0c-0.004-0.023-0.007-0.049-0.007-0.076 0-0.026 0.002-0.051 0.007-0.075l-0 0.003c0.005-0.031 0.025-0.102 0.068-0.082z"></path>
<path fill="#100c82" style="fill: var(--color20, #100c82)" d="M17.875 2.022c0.033-0.114-0.093-0.196-0.19-0.209-0.007-0-0.015-0.001-0.023-0.001-0.126 0-0.235 0.069-0.292 0.171l-0.001 0.002c-0.004 0.008-0.007 0.017-0.007 0.026 0 0.029 0.024 0.053 0.053 0.053h0c0.078-0.007 0.153-0.032 0.232-0.035 0.066 0.006 0.125 0.017 0.183 0.033l-0.007-0.002c0.025-0 0.046-0.017 0.052-0.040l0-0z"></path>
<path fill="#100c82" style="fill: var(--color20, #100c82)" d="M18.324 2.082c0.026 0.008 0.059 0.016 0.091 0.021l0.004 0c0.036 0.018 0.078 0.032 0.122 0.040l0.003 0-0.040-0.011c0.035 0.015 0.101 0.070 0.13 0.017 0.004-0.010 0.006-0.022 0.006-0.035 0-0.016-0.004-0.032-0.011-0.045l0 0.001c-0.009-0.038-0.026-0.071-0.050-0.099l0 0c-0.033-0.036-0.081-0.058-0.133-0.058-0.031 0-0.059 0.008-0.085 0.021l0.001-0c-0.038 0.021-0.108 0.116-0.040 0.148z"></path>
<path fill="#100c82" style="fill: var(--color20, #100c82)" d="M16.716 2.185c0.017 0.114 0.056 0.216 0.114 0.305l-0.002-0.003c0.229-0.223 0.032-0.675 0.265-0.894 0.082-0.067 0.188-0.108 0.304-0.108 0.006 0 0.012 0 0.018 0l-0.001-0c0.225-0.006 0.446 0.058 0.671 0.075s0.475-0.027 0.618-0.201c0.031-0.031 0.051-0.074 0.051-0.122 0-0.016-0.002-0.031-0.006-0.045l0 0.001c-0.021-0.038-0.052-0.067-0.091-0.085l-0.001-0c-0.256-0.147-0.563-0.234-0.89-0.234-0.079 0-0.156 0.005-0.232 0.015l0.009-0.001c-0.161 0.018-0.308 0.064-0.441 0.135l0.007-0.003c-0.279 0.169-0.462 0.47-0.462 0.814 0 0.147 0.033 0.285 0.093 0.409l-0.002-0.006z"></path>
<path fill="#5b0c24" style="fill: var(--color27, #5b0c24)" d="M17.87 3.146c-0.108-0.087-0.184-0.083-0.246-0.057-0.071 0.043-0.118 0.119-0.118 0.207 0 0.038 0.009 0.074 0.024 0.106l-0.001-0.001c0.069 0.154 0.215 0.263 0.388 0.277l0.002 0c0.010 0.001 0.022 0.002 0.034 0.002 0.129 0 0.242-0.067 0.306-0.169l0.001-0.001c0.018-0.024 0.029-0.054 0.029-0.087 0-0.072-0.052-0.132-0.121-0.145l-0.001-0c-0.217-0.027-0.19-0.045-0.298-0.131z"></path>
<path fill="#d3196a" style="fill: var(--color17, #d3196a)" d="M17.908 3.678c-0.17-0.011-0.314-0.117-0.377-0.265l-0.001-0.003c-0.015-0.031-0.023-0.068-0.023-0.107 0-0.042 0.010-0.082 0.028-0.117l-0.001 0.001c0.421 0.053 0.492 0.467 0.494 0.481-0.032 0.006-0.069 0.010-0.107 0.010-0.004 0-0.009-0-0.013-0h0.001z"></path>
<path fill="#ff979c" style="fill: var(--color24, #ff979c)" d="M19.067 4.728l0.282-0.258s-0.356 0.012-0.798 0c-0.21-0.006-0.488 0.024-0.435-0.443l-0.585 0.050-0.806 0.336c-0.065 0.085-0.162 0.143-0.273 0.155l-0.002 0c-0.168 0.008-0.7 0-0.872 0.164s1.187 0.974 1.998 0.974 1.49-0.978 1.49-0.978z"></path>
<path fill="#f7aa2d" style="fill: var(--color21, #f7aa2d)" d="M15.564 4.655l-0.194 0.058s-1.744 0.605-2.665 2.251 0.403 4.151 2.184 4.789l0.388-0.469s-1.504-1.262-1.27-2.92 1.671-2.002 1.671-2.002h4.274l0.467-1.609-1.068-0.282-1.86 1.055z"></path>
<path fill="#f0767b" style="fill: var(--color28, #f0767b)" d="M17.135 5.994s-0.425 0.041-0.722 0.094c-0.183 0.033-0.424 0.233-0.49 0.331s0.426-0.049 0.639-0.18 0.442-0.016 0.573-0.245z"></path>
<path fill="#ff979c" style="fill: var(--color24, #ff979c)" d="M18.060 6.043s-0.614-0.058-0.917-0.074-0.6 0.105-1.236 0.434c0 0-0.17 0.136 0.166 0.095 0.216-0.026 0.412-0.074 0.598-0.141l-0.019 0.006c0.075 0.049 0.166 0.077 0.264 0.077 0.063 0 0.123-0.012 0.179-0.034l-0.003 0.001s0.617 0.16 0.863-0.061l0.278-0.016-0.024-0.287z"></path>
<path fill="#f7aa2d" style="fill: var(--color21, #f7aa2d)" d="M19.349 4.471s3.14 0.401 4.286 1.58c0 0 0.344 0.36-0.95 0.393s-2.734-0.082-2.734-0.082l0.147-0.655z"></path>
<path fill="#f7cb2d" style="fill: var(--color18, #f7cb2d)" d="M17.97 6.394v-0.468s2.489-0.437 4.126-0.359 2.456 0.984 0.377 0.952-4.503-0.125-4.503-0.125z"></path>
<path fill="#ff979c" style="fill: var(--color24, #ff979c)" d="M14.889 11.753s0.067 0.455 0.248 0.723 0.301 0.255 0.382 0.141c0 0 0.181 0.027 0.221-0.134 0.002 0 0.004 0 0.005 0 0.089 0 0.161-0.072 0.162-0.161v-0s0.281 0.362 0.469 0.562 0.301 0.074 0.141-0.194-0.489-0.804-0.489-0.804 0.161-0.321-0.013-0.469-0.737-0.134-0.737-0.134z"></path>
<path fill="#f7cb2d" style="fill: var(--color18, #f7cb2d)" d="M16.014 4.532s1.506 1.181 2.634-0.084c0 0 0.23-0.138 0.701 0.011 0 0-0.356 1.139-1.759 1.185-1.667 0.055-2.219-0.932-2.219-0.932s0.207-0.211 0.644-0.18z"></path>
<path fill="#f59196" style="fill: var(--color29, #f59196)" d="M37.644 12.309l0.169-0.21s0.205 0.164 0.761-0.285c0.002-0.015-0.087-1.050-0.042-1.031-0.168-0.070-0.676 0.065-0.839 0.198s-0.049 1.328-0.049 1.328z"></path>
<path fill="#ff979c" style="fill: var(--color24, #ff979c)" d="M38.575 11.738c0.029 0.069-0.498 0.544-0.763 0.361l-0.075-0.405c0.101-0.079 0.23-0.127 0.37-0.127 0.069 0 0.135 0.011 0.196 0.033l-0.004-0.001c0.326 0.109 0.275 0.139 0.275 0.139z"></path>
<path fill="#d3196a" style="fill: var(--color17, #d3196a)" d="M37.778 9.496l-0.022-0.209 0.176-0.1 0.032 0.301z"></path>
<path fill="#100c82" style="fill: var(--color20, #100c82)" d="M38.040 9.505c-0.067-0.024-0.065-0.123-0.065-0.123l-0.231 0.025s0.023 0.097-0.037 0.135c-0.076 0.047-0.119 0.1-0.093 0.339 0.021 0.198 0.238 0.154 0.312 0.133 0.077 0.005 0.299 0.002 0.277-0.196-0.026-0.239-0.079-0.282-0.163-0.311z"></path>
<path fill="#d3196a" style="fill: var(--color17, #d3196a)" d="M38.387 12.796c-0.010-0.087-0.083-0.154-0.172-0.154-0.095 0-0.173 0.077-0.173 0.173s0.077 0.173 0.173 0.173c0.007 0 0.013-0 0.019-0.001l-0.001 0c0.087-0.010 0.154-0.083 0.154-0.172 0-0.006-0-0.013-0.001-0.019l0 0.001z"></path>
<path fill="#d3196a" style="fill: var(--color17, #d3196a)" d="M37.605 9.912l0.614-0.066 0.315 2.935-0.614 0.066-0.315-2.935z"></path>
<path fill="#100c82" style="fill: var(--color20, #100c82)" d="M37.903 12.687l0.614-0.066 0.017 0.16-0.614 0.066-0.017-0.16z"></path>
<path fill="#100c82" style="fill: var(--color20, #100c82)" d="M37.622 10.055l0.614-0.066 0.017 0.16-0.614 0.066-0.017-0.16z"></path>
<path fill="#100c82" style="fill: var(--color20, #100c82)" d="M37.908 10.917l0.043-0.005c0.025-0.003 0.048 0.016 0.051 0.041l0.157 1.46c0.003 0.025-0.016 0.048-0.041 0.051l-0.043 0.005c-0.025 0.003-0.048-0.016-0.051-0.041l-0.157-1.46c-0.003-0.025 0.016-0.048 0.041-0.051z"></path>
<path fill="#100c82" style="fill: var(--color20, #100c82)" d="M38.119 10.838l0.027-0.003c0.016-0.002 0.031 0.010 0.032 0.026v0l0.166 1.55c0.002 0.016-0.010 0.031-0.026 0.032v0l-0.027 0.003c0 0 0 0 0 0-0.016 0.002-0.031-0.010-0.032-0.026 0-0 0-0 0-0v0l-0.166-1.55c-0.002-0.016 0.010-0.031 0.026-0.032v0z"></path>
<path fill="#ff979c" style="fill: var(--color24, #ff979c)" d="M37.743 12.19l-0.248 0.313-0.286-0.402 0.177-0.304s-0.178-0.81 0.134-0.962c0.229-0.112 0.343-0.133 0.42-0.182 0.236-0.151 0.302 0.162-0.258 0.424 0 0 0.382 0.576 0.061 1.113z"></path>
<path fill="#ffa6aa" style="fill: var(--color30, #ffa6aa)" d="M38.488 11.88s0.243-0.102 0.111-0.331c0 0 0.312-0.114 0.089-0.333 0 0 0.22-0.173-0.027-0.294 0 0 0.183-0.302-0.155-0.309s-0.64 0.175-0.643 0.368c-0.002 0.147 0.223-0.003 0.619-0.086 0 0-0.644 0.124-0.637 0.237 0.014 0.219 0.371 0.106 0.682 0.113 0 0-0.611-0.006-0.594 0.139s0.624 0.175 0.624 0.175-0.543-0.102-0.575-0.038c-0.073 0.149 0.506 0.36 0.506 0.36z"></path>
<path fill="#98abef" style="fill: var(--color16, #98abef)" d="M36.866 12.316l0.438-0.449c0.164 0.125 0.31 0.253 0.446 0.391l0 0-0.307 0.432z"></path>
<path fill="#6c88ef" style="fill: var(--color23, #6c88ef)" d="M31.591 11.489c0.034 0.082 0.668 1.847 1.802 2.466 1.274 0.696 2.997 0.613 4.081-1.299-0.145-0.173-0.304-0.326-0.477-0.462l-0.007-0.005s-1.162 0.877-2.175 0.516c-1.114-0.398-1.321-1.217-1.61-1.845-0.367-0.799-0.753-1.277-1.439-1.067-0.611 0.187-0.407 1.926-0.407 1.926z"></path>
<path fill="#ff9e9e" style="fill: var(--color31, #ff9e9e)" d="M28.635 9.518s0.245-0.056 0.226-0.64c0 0-0.508 0-0.612-0.367s-0.104-1.215-0.094-1.733c0 0-0.040-0.292 0.352-0.49s1.381-0.273 1.522 0.075 0.132 0.97 0.132 0.97c0.075-0.145 0.224-0.242 0.395-0.242 0.035 0 0.070 0.004 0.102 0.012l-0.003-0.001c0.348 0.075 0.174 1.201-0.457 0.796 0 0-0.16 1.366 0.169 1.563l-0.889 0.889z"></path>
<path fill="#f7cb2d" style="fill: var(--color18, #f7cb2d)" d="M30.302 6.121s-0.095-0.924-0.809-0.925c-0.798-0.002-0.72 0.57-1.34 0.581-1.257 0.024-0.604 1.547 0.416 0.699 0.291-0.242 0.989-0.395 1.384-0.047v0.471s0.009 0.367 0.16 0.179v0.273s-0.009 0.141 0.057 0.141 0.042-0.228 0.042-0.228 0.152-0.148 0.266-0.165c0.040-0.113 0.085-0.209 0.138-0.3l-0.005 0.009c0.247-0.451-0.141-0.761-0.311-0.688z"></path>
<path fill="#4a31b2" style="fill: var(--color26, #4a31b2)" d="M29.199 7.149c-0.033 0.016-0.037 0.066-0.038 0.101-0 0.007-0.001 0.016-0.001 0.024 0 0.036 0.004 0.070 0.012 0.103l-0.001-0.003c0.005 0.022 0.025 0.038 0.048 0.038s0.043-0.016 0.048-0.038l0-0c0.012-0.048 0.019-0.27-0.071-0.226z"></path>
<path fill="#4a31b2" style="fill: var(--color26, #4a31b2)" d="M28.581 7.145c-0.038 0.015-0.045 0.056-0.048 0.097-0.002 0.016-0.003 0.035-0.003 0.054 0 0.028 0.003 0.056 0.008 0.082l-0-0.003c0.005 0.022 0.025 0.039 0.048 0.039s0.043-0.016 0.048-0.038l0-0c0.008-0.030 0.012-0.064 0.012-0.099 0-0.016-0.001-0.032-0.003-0.048l0 0.002c-0.003-0.031-0.018-0.102-0.062-0.084z"></path>
<path fill="#6c88ef" style="fill: var(--color23, #6c88ef)" d="M30.813 9.575l-0.556-0.028 0.038 0.282-0.734 0.556-0.873-0.633 0.088-0.205-0.625 0.028s-1.175 0.056-1.617 0.245l0.32 2.349s0.266 3.631 0.407 4.789c0.221 0.069 0.474 0.109 0.737 0.109 0.251 0 0.493-0.036 0.721-0.103l-0.018 0.005-0.006-0.732h1.589l-0.001 0.728c0.786 0.226 1.472-1.088 1.472-1.088 0.141-1.158 0.355-3.804 0.355-3.804l0.32-2.252c-0.443-0.189-1.617-0.245-1.617-0.245z"></path>
<path fill="#ff9e9e" style="fill: var(--color31, #ff9e9e)" d="M26.459 16.274s0.199 0.143 0.508 0.36 0.177 0.812 0.141 1.109-0.148 0.968-0.191 1.151-0.177 0.191-0.148-0.184 0.043-0.473 0.043-0.473-0.234 0.53-0.298 0.643-0.191 0-0.007-0.48l0.184-0.48c-0.176 0.125-0.381 0.256-0.593 0.377l-0.036 0.019c-0.169 0.078-0.092-0.141 0.064-0.29s0.395-0.33 0.395-0.33-0.042-0.595 0.028-0.779l-0.339-0.198z"></path>
<path fill="#98abef" style="fill: var(--color16, #98abef)" d="M26.46 16.11l0.32 0.304c-0.106 0.157-0.204 0.337-0.286 0.526l-0.008 0.022-0.661-0.427z"></path>
<path fill="#e1d9e8" style="fill: var(--color32, #e1d9e8)" d="M29.362 9.861s-1.048 0.189 0.2 1.083c0 0 0.88-1.023 0.138-1.049l-0.153 0.264z"></path>
<path fill="#b00e54" style="fill: var(--color33, #b00e54)" d="M29.765 10.839l-0.061-0.371h-0.342l-0.016 0.354z"></path>
<path fill="#d3196a" style="fill: var(--color17, #d3196a)" d="M29.713 9.938l-0.372-0.013-0.12 0.349 0.15 0.23h0.342l0.15-0.23z"></path>
<path fill="#98abef" style="fill: var(--color16, #98abef)" d="M28.149 9.575s0.721 1.228 1.439 1.695c0 0 0.7-0.5 1.136-1.7-0.052-0.022-0.113-0.035-0.177-0.035s-0.125 0.013-0.18 0.036l0.003-0.001s-0.33 0.757-0.822 1.257c0 0-0.87-0.991-1.031-1.281-0.032-0.004-0.069-0.006-0.107-0.006-0.093 0-0.182 0.012-0.267 0.036l0.007-0.002z"></path>
<path fill="#f2eafa" style="fill: var(--color19, #f2eafa)" d="M29.701 9.895l0.514-0.706s0.144 0.294 0.332 0.341l-0.435 1.305z"></path>
<path fill="#f2eafa" style="fill: var(--color19, #f2eafa)" d="M29.362 9.861l-0.513-0.672s-0.241 0.343-0.438 0.341l0.588 1.305z"></path>
<path fill="#b00e54" style="fill: var(--color33, #b00e54)" d="M28.395 29.936c0.008 0.11 0.013 0.238 0.013 0.367s-0.005 0.257-0.014 0.384l0.001-0.017c-0.031 0.254-1.209 0.861-1.916 1.017 0 0 1.065-0.819 1.22-1.116 0.093-0.185 0.154-0.402 0.169-0.631l0-0.005z"></path>
<path fill="#b00e54" style="fill: var(--color33, #b00e54)" d="M30.594 29.936c-0.008 0.11-0.013 0.238-0.013 0.367s0.005 0.257 0.014 0.384l-0.001-0.017c0.031 0.254 1.209 0.861 1.916 1.017 0 0-1.065-0.819-1.22-1.116-0.093-0.185-0.154-0.402-0.169-0.631l-0-0.005z"></path>
<path fill="#100c82" style="fill: var(--color20, #100c82)" d="M31.755 16.426v-0.551h-4.602v0.551s0.038 11.259 0.321 13.887c0 0 0.621 0.169 1.017 0 0 0 0.462-7.234 0.694-12.222h0.592c0.231 4.988 0.694 12.222 0.694 12.222 0.395 0.169 1.017 0 1.017 0 0.283-2.628 0.267-13.887 0.267-13.887z"></path>
<path fill="#6c88ef" style="fill: var(--color23, #6c88ef)" d="M26.591 9.804c-0.456 0.154-1.799 1.131-2.33 2.497-0.57 1.466-0.235 3.412 1.87 4.443 0.084-0.242 0.196-0.452 0.333-0.641l-0.005 0.007s-0.735-0.953-0.884-1.622c-0.209-0.94 0.209-2.064 1.296-2.32z"></path>
<path fill="#f7cb2d" style="fill: var(--color18, #f7cb2d)" d="M29.16 6.974c0.059-0.005 0.112-0.032 0.172-0.035 0.061-0.003 0.12 0.019 0.181 0.013 0.058-0.006 0.12-0.073 0.076-0.132-0.048-0.060-0.121-0.099-0.204-0.099-0.020 0-0.039 0.002-0.058 0.007l0.002-0c-0.098 0.004-0.183 0.055-0.233 0.131l-0.001 0.001c-0.022 0.048 0.003 0.12 0.066 0.115z"></path>
<path fill="#f7cb2d" style="fill: var(--color18, #f7cb2d)" d="M28.654 7.009c-0.039-0.037-0.071-0.081-0.096-0.129l-0.001-0.003c-0.017-0.028-0.048-0.046-0.083-0.046-0.054 0-0.098 0.044-0.098 0.098 0 0.008 0.001 0.017 0.003 0.024l-0-0.001c0.024 0.101 0.113 0.174 0.219 0.174 0.008 0 0.016-0 0.024-0.001l-0.001 0c0.034-0.001 0.061-0.029 0.061-0.063 0-0.022-0.012-0.042-0.029-0.053l-0-0z"></path>
<path fill="#f7cb2d" style="fill: var(--color18, #f7cb2d)" d="M29.548 16.233c0-0.080-0.065-0.145-0.145-0.145s-0.145 0.065-0.145 0.145c0 0.080 0.065 0.145 0.145 0.145v0c0.080 0 0.145-0.065 0.145-0.145v0z"></path>
<path fill="#6c88ef" style="fill: var(--color23, #6c88ef)" d="M27.119 15.508h4.676l-0.040 0.368h-4.601z"></path>
<path fill="#f7cb2d" style="fill: var(--color18, #f7cb2d)" d="M2.717 28.91s-0.495-2.277 2.239-4.154z"></path>
<path fill="#f7aa2d" style="fill: var(--color21, #f7aa2d)" d="M2.703 28.931s2.218-0.918 2.239-4.154z"></path>
<path fill="#f7aa2d" style="fill: var(--color21, #f7aa2d)" d="M2.239 28.91s0.495-2.277-2.239-4.154z"></path>
<path fill="#f7cb2d" style="fill: var(--color18, #f7cb2d)" d="M2.254 28.931s-2.218-0.918-2.239-4.154z"></path>
<path fill="#f7cb2d" style="fill: var(--color18, #f7cb2d)" d="M2.468 28.744s-2.175-2.521 0-6.553z"></path>
<path fill="#f7aa2d" style="fill: var(--color21, #f7aa2d)" d="M2.463 28.778s2.175-2.521 0-6.553z"></path>
<path fill="#100c82" style="fill: var(--color20, #100c82)" d="M0.535 28.423h3.963s0 3.092-1.981 3.092-1.981-3.092-1.981-3.092z"></path>
</symbol>
<symbol id="icon-vector-3" viewBox="0 0 51 32">
<path fill="#42b5a1" style="fill: var(--color34, #42b5a1)" d="M22.63 3.772c0 0.365-0.296 0.66-0.66 0.66s-0.66-0.296-0.66-0.66c0-0.365 0.296-0.66 0.66-0.66s0.66 0.296 0.66 0.66z"></path>
<path fill="#fec1bc" style="fill: var(--color35, #fec1bc)" d="M39.021 26.435l-0.24 2.259-2.928 2.981 3.703-1.683 0.779-3.098z"></path>
<path fill="#fec1bc" style="fill: var(--color35, #fec1bc)" d="M45.705 26.289l1.507 0.832-0.414 3.048 1.494-3.387-1.356-1.659z"></path>
<path fill="#7e93a3" style="fill: var(--color36, #7e93a3)" d="M42.583 17.91l-0.212 3.543 2.797 5.704 2.529-1.864-1.925-3.699 2.501-2.795z"></path>
<path fill="#a5b6c5" style="fill: var(--color37, #a5b6c5)" d="M42.529 17.628l-3.007 4.32-1.137 5.179 2.929 1.066 1.609-5.545 5.048-5.206z"></path>
<path fill="#8fa5b5" style="fill: var(--color38, #8fa5b5)" d="M45.538 17.408l-4.235 5.751s-0.768 3.699-0.744 4.216c0.031 0.7 0.757 0.818 0.757 0.818l1.614-5.543 5.048-5.202z"></path>
<path fill="#e89f36" style="fill: var(--color39, #e89f36)" d="M44.264 8.686l-2.78-1.256-0.083 1.557s3.428 2.199 3.767 2.709 1.396-0.831 1.396-0.831-1.313-1.573-2.3-2.18z"></path>
<path fill="#fdb947" style="fill: var(--color40, #fdb947)" d="M47.85 8.853c0.003-0.023 0.005-0.050 0.005-0.077 0-0.238-0.141-0.443-0.344-0.537l-0.004-0.002c-0.407-0.179-0.748-0.165-0.933 0.036s0.032 1.064-0.418 1.322-0.405 0.341-1.1 0.511 0.056 0.59-0.169 0.601c-0.51 0.033-0.982 0.171-1.402 0.393l0.019-0.009c-0.142 0.065-0.664 0.398-1.41 1.175-0.233 0.242-0.841 1.096-0.829 1.209 0.048 0.438 1.733 0.64 1.733 0.64 0.16-0.172 0.327-0.33 0.504-0.477l0.009-0.007c0.127 0.457-2.355 4.885-2.355 4.885s7.215 0.908 7.423 0.748c0.759-0.581-0.457-3.995-0.432-5.649 0-0.563-0.233-3.027-0.233-3.027z"></path>
<path fill="#e89f36" style="fill: var(--color39, #e89f36)" d="M47.976 13.624c0-0.57-0.292-3.060-0.292-3.060l-0.093-1.753c0.002-0.020 0.004-0.043 0.004-0.066 0-0.251-0.153-0.467-0.371-0.559l-0.004-0.002c-0.434-0.179-0.795-0.179-0.985 0.021s0.050 1.076-0.422 1.327l-0.068 0.038c0.009 0.040 0.014 0.085 0.014 0.132 0 0.023-0.001 0.046-0.004 0.068l0-0.003-0.309 1.076c0.16-0.262 0.969 2.752 0.056 5.321-1.15 3.24 2.928 3.229 3.071 3.129 0.795-0.571-0.597-4.002-0.597-5.67z"></path>
<path fill="#376bb4" style="fill: var(--color41, #376bb4)" d="M48.151 8.010c-0.581-0.741-0.771-1.132-1.548-1.344-0.262-0.072-0.933-0.402-1.118-0.414-0.037-0.006-0.079-0.010-0.122-0.010-0.262 0-0.492 0.131-0.63 0.332l-0.002 0.003-0.102 0.739c-0.19 0.124-0.349 0.277-0.475 0.456l-0.004 0.005c-0.105 0.194-0.193 0.419-0.252 0.656l-0.004 0.020 0.565-0.264-0.075 0.551-0.38 0.196 1.344 1.277 0.37-0.262c-0.001 0.023-0.002 0.051-0.002 0.079 0 0.523 0.255 0.987 0.647 1.275l0.004 0.003c0.594 0.448 0.897 0.691 1.679 0.513 0.635-0.145 0.567 0.538 1.665 0.179s1.36-1.256 0.644-2.199c-0.574-0.762-0.768-0.517-1.456-0.931-0.562-0.337-0.199-0.163-0.746-0.859z"></path>
<path fill="#265d9e" style="fill: var(--color42, #265d9e)" d="M50.358 9.798c-0.574-0.763-0.768-0.515-1.457-0.929-0.56-0.335-0.199-0.161-0.746-0.86-0.579-0.739-0.771-1.13-1.548-1.342-0.262-0.072-0.933-0.402-1.118-0.414-0.033-0.005-0.071-0.008-0.11-0.008-0.264 0-0.496 0.134-0.633 0.339l-0.002 0.003v0.025c0.244 0.102 0.518 0.222 0.664 0.262 0.777 0.212 0.651 0.99 1.232 1.731 0.547 0.696 0.502 0.135 1.062 0.472 0.689 0.414 0.19 0.929 0.766 1.692 0.633 0.841 0.958 0.623 0.387 1.295 0.179 0.065 0.434 0.084 0.861-0.056 1.093-0.365 1.356-1.26 0.64-2.209z"></path>
<path fill="#fec1bc" style="fill: var(--color35, #fec1bc)" d="M44.732 6.576c-0.202 0.012-0.383 0.091-0.523 0.216l0.001-0.001c-0.251 0.217-0.33 0.323-0.56 0.526-0.291 0.253-0.479 0.618-0.495 1.027l-0 0.003c-0.031 0.511 0.029 0.936 0.51 1.13s0.522 0.215 0.75 0.621 0.3 0.52 0.3 0.52 0.457 0.538 1.057 0.301c0.231-0.091 0.045-0.276 0-0.578-0.022-0.107-0.034-0.23-0.034-0.357 0-0.013 0-0.025 0-0.038l-0 0.002c-0.032 0.003-0.068 0.005-0.106 0.005-0.128 0-0.251-0.022-0.365-0.061l0.008 0.002c-0.171-0.087-0.317-0.194-0.443-0.321l-0-0c-0.289-0.237-0.379-0.897-0.379-0.897s0.298-0.35 0-0.495c-0.040-0.022-0.088-0.035-0.138-0.035-0.124 0-0.23 0.077-0.273 0.185l-0.001 0.002-0.152 0.111s0.118-0.526 0.343-0.759 0.269-0.222 0.393-0.379c0.068-0.113 0.108-0.25 0.108-0.395 0-0.042-0.003-0.084-0.010-0.124l0.001 0.004c-0-0.006-0-0.014-0-0.022 0-0.069 0.004-0.137 0.011-0.203l-0.001 0.008z"></path>
<path fill="#dda09e" style="fill: var(--color43, #dda09e)" opacity="0.55" d="M45.832 10.491c-0.052-0.159-0.087-0.343-0.095-0.534l-0-0.004c-0.015 0.001-0.033 0.001-0.051 0.001-0.257 0-0.493-0.088-0.681-0.234l0.002 0.002c-0.020-0.014-0.267-0.265-0.287-0.283-0.090 0.045-0.194 0.083-0.303 0.111l-0.011 0.002c-0.052 0.002-0.112 0.003-0.173 0.003-0.153 0-0.305-0.008-0.454-0.022l0.019 0.002c0.061 0.047 0.359 0.032 0.64 0.57 0.104 0.207 0.201 0.377 0.308 0.54l-0.013-0.022c0.152 0.222 0.404 0.366 0.69 0.366 0.097 0 0.19-0.017 0.276-0.047l-0.006 0.002c0.237-0.083 0.244-0.106 0.14-0.452z"></path>
<path fill="#dda09e" style="fill: var(--color43, #dda09e)" d="M43.514 7.461s-0.041 0.009-0.131 0.179c-0.059 0.109-0.119 0.241-0.171 0.378l-0.008 0.024c-0.056-0.059-0.091-0.14-0.091-0.228 0-0.016 0.001-0.032 0.003-0.048l-0 0.002c0.045-0.145 0.334-0.298 0.398-0.307z"></path>
<path fill="#dda09e" style="fill: var(--color43, #dda09e)" d="M44.11 8.494s0.113-0.219 0.212-0.206 0.203 0.023 0.179 0.088 0.025 0.084-0.115 0.154c-0.031 0.013-0.068 0.020-0.106 0.020-0.064 0-0.124-0.021-0.172-0.056l0.001 0.001z"></path>
<path fill="#fec1bc" style="fill: var(--color35, #fec1bc)" d="M36.272 5.844s0.409-0.411 1.076 0.020c0.529 0.339 1.846 0.7 2.122 0.814s2.117 0.856 2.117 0.856l-0.147 1.277c-0.522-0.378-1.121-0.755-1.744-1.094l-0.088-0.044c-0.651-0.301-1.767-0.766-2.032-0.908s-0.287 0.047-0.734 0.052c-0.382 0-0.617-0.387-0.617-0.387s-0.913 0.7-0.764 0.341 0.811-0.927 0.811-0.927z"></path>
<path fill="#fec1bc" style="fill: var(--color35, #fec1bc)" d="M42.605 14.032c-0.253-0.039-0.474-0.091-0.688-0.158l0.033 0.009c-0.149-0.043-0.493-0.19-0.493-0.19s-0.508 0.538-0.651 0.491-0.994-1.534-1.206-1.876 0-0.502-0.131-0.843c-0.179-0.468-0.585-0.813-0.662-0.816s0.052 0.151 0.124 0.359 0.070 0.294-0.054 0.296-0.244-0.283-0.269-0.481-0.086-0.588-0.090-0.66-0.099-0.070-0.151 0.106c-0.071 0.218-0.111 0.47-0.111 0.731 0 0.012 0 0.024 0 0.035l-0-0.002c0.011 0.14 0.059 0.212 0 0.179s-0.136-0.422-0.179-0.432-0.036 0.045-0.032 0.235c0.006 0.183 0.073 0.35 0.181 0.482l-0.001-0.001c0.127 0.221 0.307 0.395 0.452 0.669s0.872 1.746 0.962 2.015 0.66 1.381 1.154 1.446 1.631-1.172 1.814-1.593z"></path>
<path fill="#b2423d" style="fill: var(--color44, #b2423d)" d="M48.216 26.546s-0.538 0.874-0.606 1.326-0.291 0.744-0.554 1.274l-0.428 0.951s-0.341 1.062-0.031 0.786c0.386-0.353 0.722-0.75 1.003-1.187l0.014-0.024c0.262-0.429 0.398-0.958 0.648-1.327 0.196-0.315 0.377-0.678 0.523-1.059l0.015-0.044z"></path>
<path fill="#912a2a" style="fill: var(--color45, #912a2a)" d="M48.356 28.103l0.208 0.239s0.359-0.343 0.387-0.538c0.005-0.048 0.008-0.103 0.008-0.159 0-0.097-0.009-0.191-0.026-0.283l0.001 0.010-0.138-0.133z"></path>
<path fill="#b2423d" style="fill: var(--color44, #b2423d)" d="M39.63 29.585s-0.956 0.359-1.293 0.669-0.809 0.31-1.342 0.563l-0.976 0.549s-0.752 0.66-0.337 0.633c0.567-0.043 1.094-0.159 1.59-0.34l-0.041 0.013c0.47-0.179 0.897-0.508 1.327-0.646 0.425-0.162 0.789-0.343 1.131-0.554l-0.028 0.016 0.070-0.377z"></path>
<path fill="#912a2a" style="fill: var(--color45, #912a2a)" d="M38.78 30.896l0.018 0.316s0.493-0.050 0.635-0.179c0.099-0.1 0.183-0.215 0.251-0.34l0.004-0.008-0.027-0.19z"></path>
<path fill="#efc09a" style="fill: var(--color46, #efc09a)" d="M11.617 27.33s-0.784 1.973-0.673 2.194 1.816 1.435 1.816 1.435l-2.941-0.312 0.47-3.362z"></path>
<path fill="#efc09a" style="fill: var(--color46, #efc09a)" d="M3.618 25.785l-1.552 1.286 1.295 2.786-2.653-2.759 1.568-2.11z"></path>
<path fill="#dda09e" style="fill: var(--color43, #dda09e)" d="M13.302 6.25c0.096 0.117 0.177 0.25 0.24 0.394l0.004 0.011c0.013 0.108 0.070 0.341 0.016 0.409s-0.359 0.1-0.359 0.1z"></path>
<path fill="#bc845e" style="fill: var(--color47, #bc845e)" d="M12.098 7.676s-0.269 0.908-0.438 1.042-0.673 0.942-0.673 0.942-1.453-0.332-1.453-0.701 0.847-1.889 1.076-2.153 1.487 0.87 1.487 0.87z"></path>
<path fill="#efc09a" style="fill: var(--color46, #efc09a)" d="M13.481 5.712s0.013 0.861-0.113 1.161-0.011 0.759-0.387 1.076-0.718 0.538-1.256 0.391c-0.426-0.081-0.765-0.386-0.895-0.785l-0.002-0.008c-0.151-0.375-0.897-1.026-0.601-1.853s1.498-1.597 2.108-1.397c0.635 0.184 1.1 0.74 1.146 1.411l0 0.005z"></path>
<path fill="#9f3a3e" style="fill: var(--color48, #9f3a3e)" d="M13.605 4.983c-0.136 0.263-0.317 0.485-0.534 0.663l-0.004 0.003c-0.344 0.258-0.344 1.076-0.775 1.076-0.095 0-0.265 0.041-0.314-0.021-0.142-0.179-0.325-0.26-0.459-0.126-0.086 0.12-0.137 0.27-0.137 0.432 0 0.038 0.003 0.074 0.008 0.111l-0.001-0.004c0.033 0.143 0.077 0.269 0.134 0.388l-0.005-0.011c0.135 0.427-1.295-0.129-1.295-0.129s-0.326-0.373-0.326-1.202 0.525-2.332 0.525-2.332l2.589 0.506z"></path>
<path fill="#6d332f" style="fill: var(--color49, #6d332f)" d="M11.75 6.53c-0.1-0.108-0.194-0.225-0.279-0.349l-0.007-0.010c-0.448-0.682-0.753-2.276-0.753-2.276l-0.296-0.059s-0.524 1.491-0.524 2.32 0.332 1.225 0.332 1.225 1.423 0.551 1.293 0.124c-0.049-0.107-0.092-0.233-0.121-0.364l-0.002-0.013c-0.004-0.031-0.007-0.067-0.007-0.104 0-0.162 0.049-0.312 0.133-0.437l-0.002 0.003c0.036-0.046 0.092-0.075 0.155-0.075 0.028 0 0.055 0.006 0.079 0.016l-0.001-0z"></path>
<path fill="#efc09a" style="fill: var(--color46, #efc09a)" d="M18.836 5.859l0.527-0.786s0.029-0.472 0.088-0.825 0.106-0.63 0.208-0.63 0.063 0.617 0.063 0.617 0.135-0.603 0.553-0.664c0.113-0.015 0.243-0.023 0.376-0.023s0.263 0.009 0.391 0.025l-0.015-0.002c0.161 0.013 0.753 0.28 0.734 0.332-0.083 0.221-1.076-0.16-1.256 0.246-0.095 0.224-0.14 0.556 0 0.666 0.296 0.221 0.739-0.626 0.813-0.612s0.264 0.4-0.072 0.856c-0.179 0.233-0.298 0.465-0.639 0.538-0.286 0.024-0.531 0.179-0.678 0.404l-0.002 0.003c-0.127 0.184-0.253 0.343-0.388 0.494l0.004-0.005z"></path>
<path fill="#efc09a" style="fill: var(--color46, #efc09a)" d="M4.919 15.182l-0.527 0.784s-0.029 0.474-0.088 0.827-0.104 0.63-0.208 0.63-0.072-1.024-0.072-1.024c-0.163 0.34-0.384 0.628-0.652 0.862l-0.003 0.003c-0.178 0.152-0.409 0.247-0.663 0.253l-0.001 0c-0.163-0.014-0.664 0.059-0.432-0.231 0.145-0.179 0.251-0.382 0.718-0.976 0.149-0.192 0.664-1.023 0.827-1.268 0.128-0.183 0.254-0.343 0.39-0.494l-0.004 0.005z"></path>
<path fill="#636566" style="fill: var(--color50, #636566)" d="M10.858 16.739l1.331 6.282-0.834 5.963-1.67-0.206-0.129-5.376-1.046-2.539-1.835 2.583-3.234 2.605-1.672-0.728 2.96-3.030 2.52-6.725z"></path>
<path fill="#ff624d" style="fill: var(--color51, #ff624d)" d="M18.64 5.331s-1.116 2.153-2.77 2.962c-1.519 0.743-2.092 0.897-3.102 0.766-0.535-0.061-1.003-0.144-1.461-0.252l0.084 0.017-1.377-0.032s-1.973-0.409-3.121 0.163-2.343 2.696-2.343 2.696l-1.156 3.598 1.543 0.179 1.379-2.649 0.527-1.475 0.152 5.687 4.269 0.129 1.485-5.353s1.973 0.014 3.968-1.525c2.461-1.893 3.202-3.672 3.202-3.672z"></path>
<path fill="#265d9e" style="fill: var(--color42, #265d9e)" d="M9.752 29.669s0.036 0.425 0.615 0.538c0.678 0.126 0.897 0.063 1.006-0.096s-0.131-0.274 0-0.264c0.248 0.023 1.214 0.486 1.453 0.637 0.5 0.316 0.635 0.588 0.614 0.791s-2.721-0.248-2.721-0.248-1.033-0.022-1.057-0.338c0.003-0.363 0.035-0.715 0.095-1.059l-0.006 0.038z"></path>
<path fill="#28435e" style="fill: var(--color52, #28435e)" d="M9.965 29.536l-0.057 0.441s-0.066-0.072-0.102-0.117c-0.034-0.054-0.054-0.119-0.054-0.189 0-0.001 0-0.002 0-0.003v0c0.001-0.060 0.039-0.111 0.092-0.131l0.001-0c0.019-0.005 0.041-0.008 0.064-0.008 0.020 0 0.039 0.002 0.058 0.006l-0.002-0z"></path>
<path fill="#ddd" style="fill: var(--color53, #ddd)" d="M9.635 30.614l-0.063 0.479c0.206 0.183 0.461 0.316 0.742 0.378l0.011 0.002c0.422 0.068 2.585 0.226 2.82 0.226h0.235l0.048-0.432s-1.32-0.025-1.927-0.122-1.351-0.179-1.535-0.283-0.341-0.208-0.332-0.248z"></path>
<path fill="#265d9e" style="fill: var(--color42, #265d9e)" d="M0.852 26.544s-0.179 0.387 0.274 0.764c0.529 0.441 0.746 0.491 0.926 0.409 0.151-0.070 0.020-0.303 0.122-0.231 0.204 0.14 0.82 1.019 0.953 1.267 0.282 0.522 0.265 0.825 0.145 0.99s-2.248-1.552-2.248-1.552-0.897-0.527-0.753-0.813c0.185-0.316 0.377-0.589 0.589-0.844l-0.008 0.010z"></path>
<path fill="#28435e" style="fill: var(--color52, #28435e)" d="M1.103 26.531l-0.266 0.358s-0.023-0.096-0.032-0.152c-0-0.006-0.001-0.013-0.001-0.019 0-0.064 0.018-0.123 0.048-0.174l-0.001 0.002c0.025-0.043 0.071-0.072 0.123-0.072 0.008 0 0.015 0.001 0.023 0.002l-0.001-0c0.041 0.011 0.076 0.030 0.106 0.056l-0-0z"></path>
<path fill="#ddd" style="fill: var(--color53, #ddd)" d="M0.287 27.308l-0.287 0.387c0.097 0.28 0.259 0.517 0.468 0.7l0.002 0.002c0.332 0.267 2.14 1.469 2.345 1.584l0.204 0.115 0.253-0.359s-1.137-0.669-1.614-1.051-1.076-0.827-1.198-1.003-0.201-0.345-0.173-0.375z"></path>
<path fill="#dda09e" style="fill: var(--color43, #dda09e)" d="M11.926 6.899s-0.12-0.344-0.28-0.179 0.065 0.391 0.065 0.391l0.088 0.179c0.081-0.087 0.131-0.205 0.131-0.334 0-0.020-0.001-0.040-0.004-0.060l0 0.002z"></path>
<path fill="#42b5a1" style="fill: var(--color34, #42b5a1)" d="M40.493 8.779c0 0.42-0.341 0.761-0.761 0.761s-0.761-0.341-0.761-0.761c0-0.42 0.341-0.761 0.761-0.761s0.761 0.341 0.761 0.761z"></path>
<path fill="#42b5a1" style="fill: var(--color34, #42b5a1)" d="M16.224 13.226c0 0.453-0.367 0.82-0.82 0.82s-0.82-0.367-0.82-0.82c0-0.453 0.367-0.82 0.82-0.82s0.82 0.367 0.82 0.82z"></path>
<path fill="#42b5a1" style="fill: var(--color34, #42b5a1)" d="M32.505 5.57c0 0.365-0.296 0.66-0.66 0.66s-0.66-0.296-0.66-0.66c0-0.365 0.296-0.66 0.66-0.66s0.66 0.296 0.66 0.66z"></path>
</symbol>
</defs>
</svg>
