<svg aria-hidden="true" style="position: absolute; width: 0; height: 0; overflow: hidden;" version="1.1" xmlns="http://www.w3.org/2000/svg" xmlns:xlink="http://www.w3.org/1999/xlink">
<defs>
<symbol id="icon-Whatsapp" viewBox="0 0 27 32">
<path d="M17.59 17.393c0.304 0 3.211 1.509 3.337 1.733 0.034 0.080 0.034 0.194 0.034 0.263 0 0.446-0.143 0.937-0.309 1.349-0.411 1-2.080 1.634-3.097 1.634-0.857 0-2.629-0.754-3.394-1.109-2.553-1.166-4.143-3.143-5.679-5.41-0.686-1-1.286-2.24-1.267-3.474v-0.143c0.034-1.189 0.457-2.018 1.314-2.823 0.263-0.251 0.553-0.4 0.926-0.4 0.206 0 0.429 0.046 0.651 0.046 0.48 0 0.571 0.143 0.743 0.606 0.114 0.304 1.029 2.733 1.029 2.903 0 0.674-1.234 1.447-1.234 1.857 0 0.080 0.034 0.171 0.080 0.263 0.389 0.839 1.143 1.794 1.817 2.447 0.811 0.777 1.696 1.303 2.696 1.794 0.114 0.069 0.24 0.114 0.389 0.114 0.526 0 1.429-1.733 1.886-1.733zM13.955 26.857c6.171 0 11.214-5.040 11.214-11.223s-5.040-11.223-11.223-11.223-11.223 5.029-11.223 11.211c0 2.354 0.743 4.651 2.143 6.571l-1.415 4.16 4.32-1.383c1.817 1.189 3.982 1.857 6.161 1.857zM13.955 2.178c7.429 0 13.464 6.034 13.464 13.464 0 7.429-6.046 13.463-13.474 13.463-2.267 0-4.526-0.571-6.518-1.68l-7.447 2.389 2.419-7.242c-1.269-2.083-1.92-4.503-1.92-6.949 0-7.429 6.034-13.474 13.463-13.474z"></path>
</symbol>
<symbol id="icon-share" viewBox="0 0 32 32">
<path fill="#fff" style="fill: var(--color1, #fff)" d="M24 21.44c-1.013 0-1.92 0.4-2.613 1.027l-9.507-5.533c0.067-0.307 0.12-0.613 0.12-0.933s-0.053-0.627-0.12-0.933l9.4-5.48c0.72 0.667 1.667 1.080 2.72 1.080 2.213 0 4-1.787 4-4s-1.787-4-4-4-4 1.787-4 4c0 0.32 0.053 0.627 0.12 0.933l-9.4 5.48c-0.72-0.667-1.667-1.080-2.72-1.080-2.213 0-4 1.787-4 4s1.787 4 4 4c1.053 0 2-0.413 2.72-1.080l9.493 5.547c-0.067 0.28-0.107 0.573-0.107 0.867 0 2.147 1.747 3.893 3.893 3.893s3.893-1.747 3.893-3.893c0-2.147-1.747-3.893-3.893-3.893z"></path>
</symbol>
<symbol id="icon-aye" viewBox="0 0 50 32">
<path fill="#999" style="fill: var(--color2, #999)" d="M49.891 15.024c-0.45-0.614-11.136-15.024-24.784-15.024s-24.338 14.409-24.788 15.024c-0.199 0.27-0.318 0.609-0.318 0.976s0.119 0.706 0.322 0.981l-0.003-0.005c0.45 0.614 11.136 15.024 24.784 15.024s24.338-14.409 24.784-15.024c0.201-0.27 0.321-0.611 0.321-0.979 0-0.366-0.119-0.705-0.321-0.979l0.003 0.005zM25.103 28.69c-10.053 0-18.761-9.563-21.339-12.69 2.56-3.13 11.264-12.69 21.339-12.69s18.761 9.563 21.339 12.69c-2.556 3.131-11.26 12.69-21.339 12.69z"></path>
<path fill="#999" style="fill: var(--color2, #999)" d="M25.106 6.071c-5.486 0-9.933 4.447-9.933 9.933s4.447 9.933 9.933 9.933c5.486 0 9.933-4.447 9.933-9.933v0c-0.006-5.483-4.45-9.927-9.932-9.933h-0.001zM25.106 22.623c-3.656 0-6.619-2.964-6.619-6.619s2.964-6.619 6.619-6.619c3.656 0 6.619 2.964 6.619 6.619v0c-0.004 3.654-2.965 6.615-6.619 6.619h-0z"></path>
</symbol>
<symbol id="icon-clock" viewBox="0 0 32 32">
<path fill="#999" style="fill: var(--color2, #999)" d="M28.634 8.42c-0.449 0.221-0.752 0.675-0.752 1.201 0 0.211 0.049 0.41 0.136 0.587l-0.003-0.008c0.833 1.681 1.32 3.661 1.32 5.754 0 0.016-0 0.032-0 0.049v-0.003c0 7.364-5.97 13.334-13.334 13.334s-13.334-5.97-13.334-13.334c0-7.364 5.97-13.334 13.334-13.334v0c0.018-0 0.040-0 0.062-0 3.119 0 5.985 1.084 8.241 2.896l-0.026-0.020c0.229 0.191 0.527 0.307 0.851 0.307 0.737 0 1.334-0.597 1.334-1.334 0-0.431-0.205-0.814-0.522-1.058l-0.003-0.002c-2.702-2.157-6.168-3.461-9.938-3.461-8.837 0-16 7.163-16 16s7.163 16 16 16c8.834 0 15.996-7.16 16-15.993v-0c0-0.015 0-0.034 0-0.052 0-2.513-0.585-4.89-1.627-7.001l0.041 0.093c-0.22-0.449-0.675-0.753-1.2-0.753-0.211 0-0.411 0.049-0.588 0.137l0.008-0.003z"></path>
<path fill="#999" style="fill: var(--color2, #999)" d="M15.118 4.734c-0.875 0-1.584 0.709-1.584 1.584v0 11.084c0 0.875 0.709 1.584 1.584 1.584v0h7.916c0.017 0.001 0.037 0.001 0.056 0.001 0.875 0 1.584-0.709 1.584-1.584s-0.709-1.584-1.584-1.584c-0.020 0-0.040 0-0.059 0.001l0.003-0h-6.334v-9.5c0-0.001 0-0.001 0-0.002 0-0.874-0.708-1.583-1.582-1.584h-0z"></path>
</symbol>
<symbol id="icon-facebook" viewBox="0 0 16 32">
<path fill="#03608e" style="fill: var(--color3, #03608e)" d="M0.516 17.044h3.507v14.44c0 0.285 0.231 0.516 0.516 0.516v0h5.952c0.285 0 0.516-0.231 0.516-0.516v-14.372h4.032c0.264-0 0.481-0.199 0.512-0.454l0-0.002 0.613-5.316c0.002-0.018 0.003-0.039 0.003-0.060 0-0.285-0.231-0.516-0.515-0.516h-4.645v-3.333c0-1.005 0.541-1.514 1.608-1.514h3.037c0.285 0 0.516-0.231 0.516-0.516v-4.879c0-0.001 0-0.003 0-0.004 0-0.285-0.231-0.516-0.516-0.516-0.001 0-0.003 0-0.004 0h-4.185c-0.029 0-0.095 0-0.191 0-2.013 0.008-3.849 0.755-5.254 1.984l0.009-0.008c-1.155 1.013-1.88 2.492-1.88 4.14 0 0.264 0.019 0.523 0.054 0.777l-0.003-0.029v3.898h-3.683c-0.285 0-0.516 0.231-0.516 0.516v0 5.248c0 0.285 0.231 0.516 0.516 0.516v0z"></path>
</symbol>
<symbol id="icon-google" viewBox="0 0 32 32">
<path fill="#03608e" style="fill: var(--color3, #03608e)" d="M7.092 19.338l-1.114 4.158-4.070 0.086c-1.2-2.193-1.907-4.805-1.907-7.582 0-2.688 0.662-5.222 1.832-7.447l-0.042 0.088 3.624 0.665 1.587 3.603c-0.325 0.921-0.513 1.983-0.513 3.089 0 1.2 0.221 2.348 0.625 3.405l-0.022-0.066z"></path>
<path fill="#03608e" style="fill: var(--color3, #03608e)" d="M31.72 13.011c0.179 0.899 0.282 1.933 0.282 2.99 0 5.032-2.323 9.521-5.956 12.452l-0.030 0.024-4.565-0.232-0.646-4.034c1.873-1.112 3.307-2.794 4.080-4.805l0.022-0.065h-8.555v-6.33h15.368z"></path>
<path fill="#03608e" style="fill: var(--color3, #03608e)" d="M26.016 28.48v0c-2.716 2.195-6.212 3.523-10.018 3.523-6.060 0-11.334-3.368-14.050-8.335l-0.042-0.083 5.186-4.239c1.393 3.637 4.855 6.173 8.91 6.173 1.77 0 3.428-0.483 4.848-1.325l-0.044 0.024z"></path>
<path fill="#03608e" style="fill: var(--color3, #03608e)" d="M26.212 3.683l-5.184 4.239c-1.427-0.901-3.164-1.435-5.025-1.435-4.148 0-7.675 2.654-8.978 6.356l-0.020 0.067-5.214-4.261c2.722-5.173 8.060-8.639 14.208-8.639 3.893 0 7.462 1.39 10.236 3.702l-0.026-0.021z"></path>
</symbol>
<symbol id="icon-twitter" viewBox="0 0 39 32">
<path fill="#df5332" style="fill: var(--color4, #df5332)" d="M39.385 3.788c-1.354 0.605-2.925 1.051-4.57 1.259l-0.083 0.009c1.674-1.005 2.931-2.558 3.536-4.406l0.016-0.057c-1.474 0.889-3.189 1.567-5.017 1.936l-0.103 0.017c-1.477-1.578-3.573-2.561-5.899-2.561-4.459 0-8.073 3.615-8.073 8.073 0 0.007 0 0.014 0 0.020v-0.001c-0 0.033-0.001 0.073-0.001 0.112 0 0.612 0.066 1.209 0.192 1.784l-0.010-0.055c-6.73-0.34-12.65-3.543-16.61-8.405l-0.033-0.042c-0.695 1.168-1.105 2.575-1.105 4.078 0 2.786 1.411 5.243 3.557 6.695l0.029 0.018c-1.34-0.039-2.587-0.402-3.676-1.015l0.040 0.021v0.089c0.005 3.894 2.753 7.146 6.416 7.924l0.053 0.009c-0.617 0.169-1.324 0.266-2.055 0.266-0.022 0-0.043-0-0.065-0l0.003 0c-0.038 0.001-0.083 0.001-0.128 0.001-0.496 0-0.98-0.050-1.447-0.147l0.046 0.008c1.075 3.231 4.032 5.536 7.54 5.623l0.010 0c-2.725 2.145-6.206 3.44-9.99 3.44-0.007 0-0.015 0-0.022 0h0.001c-0.041 0-0.090 0.001-0.139 0.001-0.634 0-1.26-0.039-1.873-0.115l0.073 0.007c3.478 2.271 7.736 3.621 12.309 3.621 0.027 0 0.054-0 0.081-0h-0.004c0.047 0 0.104 0.001 0.16 0.001 12.604 0 22.822-10.218 22.822-22.822 0-0.054-0-0.109-0.001-0.163l0 0.008c0-0.362-0.013-0.701-0.029-1.043 1.598-1.153 2.942-2.543 4.010-4.134l0.037-0.058z"></path>
</symbol>
<symbol id="icon-youtube" viewBox="0 0 45 32">
<path fill="#03608e" style="fill: var(--color3, #03608e)" d="M35.825 0h-26.433c-5.187 0-9.392 4.205-9.392 9.392v0 13.214c0 5.187 4.205 9.392 9.392 9.392v0h26.433c5.187 0 9.392-4.205 9.392-9.392v0-13.214c0-5.187-4.205-9.392-9.392-9.392v0zM29.473 16.641l-12.362 5.887c-0.062 0.030-0.136 0.048-0.213 0.048-0.274 0-0.496-0.222-0.496-0.496v-12.154c0-0.001 0-0.002 0-0.003 0-0.274 0.222-0.496 0.496-0.496 0.084 0 0.163 0.021 0.233 0.058l-0.003-0.001 12.359 6.267c0.162 0.084 0.271 0.25 0.271 0.442 0 0.197-0.115 0.367-0.281 0.447l-0.003 0.001z"></path>
</symbol>
<symbol id="icon-android" viewBox="0 0 32 32">
<path fill="#fff" style="fill: var(--color1, #fff)" d="M8 24c0 0.733 0.6 1.333 1.333 1.333h1.333v4.667c0 1.107 0.893 2 2 2s2-0.893 2-2v-4.667h2.667v4.667c0 1.107 0.893 2 2 2s2-0.893 2-2v-4.667h1.333c0.733 0 1.333-0.6 1.333-1.333v-13.333h-16v13.333zM4.667 10.667c-1.107 0-2 0.893-2 2v9.333c0 1.107 0.893 2 2 2s2-0.893 2-2v-9.333c0-1.107-0.893-2-2-2zM27.333 10.667c-1.107 0-2 0.893-2 2v9.333c0 1.107 0.893 2 2 2s2-0.893 2-2v-9.333c0-1.107-0.893-2-2-2zM20.707 2.88l1.74-1.74c0.26-0.26 0.26-0.68 0-0.94s-0.68-0.26-0.94 0l-1.973 1.967c-1.067-0.527-2.26-0.833-3.533-0.833-1.28 0-2.48 0.307-3.553 0.84l-1.98-1.98c-0.26-0.26-0.68-0.26-0.94 0s-0.26 0.68 0 0.94l1.747 1.747c-1.98 1.46-3.273 3.807-3.273 6.453h16c0-2.653-1.3-5-3.293-6.453zM13.333 6.667h-1.333v-1.333h1.333v1.333zM20 6.667h-1.333v-1.333h1.333v1.333z"></path>
</symbol>
<symbol id="icon-apple" viewBox="0 0 25 32">
<path fill="#fff" style="fill: var(--color1, #fff)" d="M24.875 21.691c-0.457 1.406-1.166 2.903-2.206 4.457-1.543 2.331-3.074 3.497-4.594 3.497-0.617 0-1.429-0.206-2.503-0.571-1.063-0.4-1.966-0.571-2.696-0.571-0.714 0-1.571 0.194-2.537 0.583-0.982 0.4-1.771 0.606-2.366 0.606-1.839 0-3.611-1.554-5.375-4.629-1.742-3.074-2.633-6.057-2.633-8.982 0-2.733 0.674-4.949 2.018-6.686 1.337-1.714 3.017-2.571 5.063-2.571 0.875 0 1.909 0.171 3.161 0.526 1.223 0.354 2.046 0.526 2.457 0.526 0.514 0 1.371-0.206 2.553-0.617 1.177-0.4 2.206-0.617 3.086-0.617 1.429 0 2.686 0.389 3.794 1.161 0.617 0.429 1.246 1.029 1.857 1.783-0.937 0.777-1.611 1.474-2.046 2.103-0.777 1.097-1.166 2.331-1.166 3.696 0 1.463 0.4 2.8 1.223 3.977 0.811 1.177 1.76 1.92 2.811 2.24zM18.16 0.743c0 0.731-0.183 1.543-0.526 2.423-0.366 0.891-0.914 1.714-1.669 2.457-0.651 0.64-1.286 1.063-1.931 1.286-0.41 0.114-1.018 0.229-1.857 0.304 0.034-1.771 0.491-3.314 1.383-4.59 0.891-1.291 2.389-2.161 4.457-2.651 0.034 0.16 0.069 0.286 0.080 0.393 0 0.114 0.011 0.229 0.011 0.354z"></path>
</symbol>
<symbol id="icon-play" viewBox="0 0 32 32">
<path fill="#fff" style="fill: var(--color1, #fff)" d="M13.333 22l8-6-8-6v12zM16 2.667c-7.36 0-13.333 5.973-13.333 13.333s5.973 13.333 13.333 13.333 13.333-5.973 13.333-13.333-5.973-13.333-13.333-13.333zM16 26.667c-5.88 0-10.667-4.787-10.667-10.667s4.787-10.667 10.667-10.667 10.667 4.787 10.667 10.667-4.787 10.667-10.667 10.667z"></path>
</symbol>
</defs>
</svg>
